<?xml version="1.0" encoding="utf-8" standalone="no"?>
<!DOCTYPE svg PUBLIC "-//W3C//DTD SVG 1.1//EN"
  "http://www.w3.org/Graphics/SVG/1.1/DTD/svg11.dtd">
<svg xmlns:xlink="http://www.w3.org/1999/xlink" width="460.8pt" height="345.6pt" viewBox="0 0 460.8 345.6" xmlns="http://www.w3.org/2000/svg" version="1.1">
 <metadata>
  <rdf:RDF xmlns:dc="http://purl.org/dc/elements/1.1/" xmlns:cc="http://creativecommons.org/ns#" xmlns:rdf="http://www.w3.org/1999/02/22-rdf-syntax-ns#">
   <cc:Work>
    <dc:type rdf:resource="http://purl.org/dc/dcmitype/StillImage"/>
    <dc:date>2024-07-01T16:26:34.140676</dc:date>
    <dc:format>image/svg+xml</dc:format>
    <dc:creator>
     <cc:Agent>
      <dc:title>Matplotlib v3.7.2, https://matplotlib.org/</dc:title>
     </cc:Agent>
    </dc:creator>
   </cc:Work>
  </rdf:RDF>
 </metadata>
 <defs>
  <style type="text/css">*{stroke-linejoin: round; stroke-linecap: butt}</style>
 </defs>
 <g id="figure_1">
  <g id="patch_1">
   <path d="M 0 345.6 
L 460.8 345.6 
L 460.8 0 
L 0 0 
z
" style="fill: #ffffff"/>
  </g>
  <g id="axes_1">
   <g id="patch_2">
    <path d="M 57.6 307.584 
L 414.72 307.584 
L 414.72 41.472 
L 57.6 41.472 
z
" style="fill: #ffffff"/>
   </g>
   <g id="matplotlib.axis_1">
    <g id="xtick_1">
     <g id="line2d_1">
      <path d="M 68.716654 307.584 
L 68.716654 41.472 
" clip-path="url(#p83137395d9)" style="fill: none; stroke-dasharray: 2.96,1.28; stroke-dashoffset: 0; stroke: #b0b0b0; stroke-opacity: 0.5; stroke-width: 0.8"/>
     </g>
     <g id="line2d_2">
      <defs>
       <path id="m6e77aec2df" d="M 0 0 
L 0 3.5 
" style="stroke: #000000; stroke-width: 0.8"/>
      </defs>
      <g>
       <use xlink:href="#m6e77aec2df" x="68.716654" y="307.584" style="stroke: #000000; stroke-width: 0.8"/>
      </g>
     </g>
     <g id="text_1">
      <!-- 0 -->
      <g transform="translate(65.535404 322.182437) scale(0.1 -0.1)">
       <defs>
        <path id="DejaVuSans-30" d="M 2034 4250 
Q 1547 4250 1301 3770 
Q 1056 3291 1056 2328 
Q 1056 1369 1301 889 
Q 1547 409 2034 409 
Q 2525 409 2770 889 
Q 3016 1369 3016 2328 
Q 3016 3291 2770 3770 
Q 2525 4250 2034 4250 
z
M 2034 4750 
Q 2819 4750 3233 4129 
Q 3647 3509 3647 2328 
Q 3647 1150 3233 529 
Q 2819 -91 2034 -91 
Q 1250 -91 836 529 
Q 422 1150 422 2328 
Q 422 3509 836 4129 
Q 1250 4750 2034 4750 
z
" transform="scale(0.015625)"/>
       </defs>
       <use xlink:href="#DejaVuSans-30"/>
      </g>
     </g>
    </g>
    <g id="xtick_2">
     <g id="line2d_3">
      <path d="M 147.588497 307.584 
L 147.588497 41.472 
" clip-path="url(#p83137395d9)" style="fill: none; stroke-dasharray: 2.96,1.28; stroke-dashoffset: 0; stroke: #b0b0b0; stroke-opacity: 0.5; stroke-width: 0.8"/>
     </g>
     <g id="line2d_4">
      <g>
       <use xlink:href="#m6e77aec2df" x="147.588497" y="307.584" style="stroke: #000000; stroke-width: 0.8"/>
      </g>
     </g>
     <g id="text_2">
      <!-- 5 -->
      <g transform="translate(144.407247 322.182437) scale(0.1 -0.1)">
       <defs>
        <path id="DejaVuSans-35" d="M 691 4666 
L 3169 4666 
L 3169 4134 
L 1269 4134 
L 1269 2991 
Q 1406 3038 1543 3061 
Q 1681 3084 1819 3084 
Q 2600 3084 3056 2656 
Q 3513 2228 3513 1497 
Q 3513 744 3044 326 
Q 2575 -91 1722 -91 
Q 1428 -91 1123 -41 
Q 819 9 494 109 
L 494 744 
Q 775 591 1075 516 
Q 1375 441 1709 441 
Q 2250 441 2565 725 
Q 2881 1009 2881 1497 
Q 2881 1984 2565 2268 
Q 2250 2553 1709 2553 
Q 1456 2553 1204 2497 
Q 953 2441 691 2322 
L 691 4666 
z
" transform="scale(0.015625)"/>
       </defs>
       <use xlink:href="#DejaVuSans-35"/>
      </g>
     </g>
    </g>
    <g id="xtick_3">
     <g id="line2d_5">
      <path d="M 226.46034 307.584 
L 226.46034 41.472 
" clip-path="url(#p83137395d9)" style="fill: none; stroke-dasharray: 2.96,1.28; stroke-dashoffset: 0; stroke: #b0b0b0; stroke-opacity: 0.5; stroke-width: 0.8"/>
     </g>
     <g id="line2d_6">
      <g>
       <use xlink:href="#m6e77aec2df" x="226.46034" y="307.584" style="stroke: #000000; stroke-width: 0.8"/>
      </g>
     </g>
     <g id="text_3">
      <!-- 10 -->
      <g transform="translate(220.09784 322.182437) scale(0.1 -0.1)">
       <defs>
        <path id="DejaVuSans-31" d="M 794 531 
L 1825 531 
L 1825 4091 
L 703 3866 
L 703 4441 
L 1819 4666 
L 2450 4666 
L 2450 531 
L 3481 531 
L 3481 0 
L 794 0 
L 794 531 
z
" transform="scale(0.015625)"/>
       </defs>
       <use xlink:href="#DejaVuSans-31"/>
       <use xlink:href="#DejaVuSans-30" x="63.623047"/>
      </g>
     </g>
    </g>
    <g id="xtick_4">
     <g id="line2d_7">
      <path d="M 305.332183 307.584 
L 305.332183 41.472 
" clip-path="url(#p83137395d9)" style="fill: none; stroke-dasharray: 2.96,1.28; stroke-dashoffset: 0; stroke: #b0b0b0; stroke-opacity: 0.5; stroke-width: 0.8"/>
     </g>
     <g id="line2d_8">
      <g>
       <use xlink:href="#m6e77aec2df" x="305.332183" y="307.584" style="stroke: #000000; stroke-width: 0.8"/>
      </g>
     </g>
     <g id="text_4">
      <!-- 15 -->
      <g transform="translate(298.969683 322.182437) scale(0.1 -0.1)">
       <use xlink:href="#DejaVuSans-31"/>
       <use xlink:href="#DejaVuSans-35" x="63.623047"/>
      </g>
     </g>
    </g>
    <g id="xtick_5">
     <g id="line2d_9">
      <path d="M 384.204027 307.584 
L 384.204027 41.472 
" clip-path="url(#p83137395d9)" style="fill: none; stroke-dasharray: 2.96,1.28; stroke-dashoffset: 0; stroke: #b0b0b0; stroke-opacity: 0.5; stroke-width: 0.8"/>
     </g>
     <g id="line2d_10">
      <g>
       <use xlink:href="#m6e77aec2df" x="384.204027" y="307.584" style="stroke: #000000; stroke-width: 0.8"/>
      </g>
     </g>
     <g id="text_5">
      <!-- 20 -->
      <g transform="translate(377.841527 322.182437) scale(0.1 -0.1)">
       <defs>
        <path id="DejaVuSans-32" d="M 1228 531 
L 3431 531 
L 3431 0 
L 469 0 
L 469 531 
Q 828 903 1448 1529 
Q 2069 2156 2228 2338 
Q 2531 2678 2651 2914 
Q 2772 3150 2772 3378 
Q 2772 3750 2511 3984 
Q 2250 4219 1831 4219 
Q 1534 4219 1204 4116 
Q 875 4013 500 3803 
L 500 4441 
Q 881 4594 1212 4672 
Q 1544 4750 1819 4750 
Q 2544 4750 2975 4387 
Q 3406 4025 3406 3419 
Q 3406 3131 3298 2873 
Q 3191 2616 2906 2266 
Q 2828 2175 2409 1742 
Q 1991 1309 1228 531 
z
" transform="scale(0.015625)"/>
       </defs>
       <use xlink:href="#DejaVuSans-32"/>
       <use xlink:href="#DejaVuSans-30" x="63.623047"/>
      </g>
     </g>
    </g>
    <g id="text_6">
     <!-- $Radius$ $[km]$ -->
     <g transform="translate(206.01 335.860562) scale(0.1 -0.1)">
      <defs>
       <path id="DejaVuSans-Oblique-52" d="M 1613 4147 
L 1294 2491 
L 2106 2491 
Q 2584 2491 2879 2755 
Q 3175 3019 3175 3444 
Q 3175 3784 2976 3965 
Q 2778 4147 2406 4147 
L 1613 4147 
z
M 2772 2241 
Q 2972 2194 3105 2009 
Q 3238 1825 3413 1275 
L 3809 0 
L 3144 0 
L 2778 1197 
Q 2638 1659 2453 1815 
Q 2269 1972 1888 1972 
L 1191 1972 
L 806 0 
L 172 0 
L 1081 4666 
L 2503 4666 
Q 3150 4666 3495 4373 
Q 3841 4081 3841 3531 
Q 3841 3044 3547 2687 
Q 3253 2331 2772 2241 
z
" transform="scale(0.015625)"/>
       <path id="DejaVuSans-Oblique-61" d="M 3438 1997 
L 3047 0 
L 2472 0 
L 2578 531 
Q 2325 219 2001 64 
Q 1678 -91 1281 -91 
Q 834 -91 548 182 
Q 263 456 263 884 
Q 263 1497 752 1853 
Q 1241 2209 2100 2209 
L 2900 2209 
L 2931 2363 
Q 2938 2388 2941 2417 
Q 2944 2447 2944 2509 
Q 2944 2788 2717 2942 
Q 2491 3097 2081 3097 
Q 1800 3097 1504 3025 
Q 1209 2953 897 2809 
L 997 3341 
Q 1322 3463 1633 3523 
Q 1944 3584 2234 3584 
Q 2853 3584 3176 3315 
Q 3500 3047 3500 2534 
Q 3500 2431 3484 2292 
Q 3469 2153 3438 1997 
z
M 2816 1759 
L 2241 1759 
Q 1534 1759 1195 1570 
Q 856 1381 856 984 
Q 856 709 1029 553 
Q 1203 397 1509 397 
Q 1978 397 2328 733 
Q 2678 1069 2791 1631 
L 2816 1759 
z
" transform="scale(0.015625)"/>
       <path id="DejaVuSans-Oblique-64" d="M 2675 525 
Q 2444 222 2128 65 
Q 1813 -91 1428 -91 
Q 903 -91 598 267 
Q 294 625 294 1247 
Q 294 1766 478 2236 
Q 663 2706 1013 3078 
Q 1244 3325 1534 3454 
Q 1825 3584 2144 3584 
Q 2481 3584 2739 3421 
Q 2997 3259 3138 2956 
L 3513 4863 
L 4091 4863 
L 3144 0 
L 2566 0 
L 2675 525 
z
M 891 1350 
Q 891 897 1095 644 
Q 1300 391 1663 391 
Q 1931 391 2161 520 
Q 2391 650 2566 903 
Q 2750 1166 2856 1509 
Q 2963 1853 2963 2188 
Q 2963 2622 2758 2865 
Q 2553 3109 2194 3109 
Q 1922 3109 1687 2981 
Q 1453 2853 1288 2613 
Q 1106 2353 998 2009 
Q 891 1666 891 1350 
z
" transform="scale(0.015625)"/>
       <path id="DejaVuSans-Oblique-69" d="M 1172 4863 
L 1747 4863 
L 1606 4134 
L 1031 4134 
L 1172 4863 
z
M 909 3500 
L 1484 3500 
L 800 0 
L 225 0 
L 909 3500 
z
" transform="scale(0.015625)"/>
       <path id="DejaVuSans-Oblique-75" d="M 428 1388 
L 838 3500 
L 1416 3500 
L 1006 1409 
Q 975 1256 961 1147 
Q 947 1038 947 966 
Q 947 700 1109 554 
Q 1272 409 1569 409 
Q 2031 409 2368 721 
Q 2706 1034 2809 1563 
L 3194 3500 
L 3769 3500 
L 3091 0 
L 2516 0 
L 2631 550 
Q 2388 244 2052 76 
Q 1716 -91 1338 -91 
Q 878 -91 622 161 
Q 366 413 366 863 
Q 366 956 381 1097 
Q 397 1238 428 1388 
z
" transform="scale(0.015625)"/>
       <path id="DejaVuSans-Oblique-73" d="M 3200 3397 
L 3091 2853 
Q 2863 2978 2609 3040 
Q 2356 3103 2088 3103 
Q 1634 3103 1373 2948 
Q 1113 2794 1113 2528 
Q 1113 2219 1719 2053 
Q 1766 2041 1788 2034 
L 1972 1978 
Q 2547 1819 2739 1644 
Q 2931 1469 2931 1166 
Q 2931 609 2489 259 
Q 2047 -91 1331 -91 
Q 1053 -91 747 -37 
Q 441 16 72 128 
L 184 722 
Q 500 559 806 475 
Q 1113 391 1394 391 
Q 1816 391 2080 572 
Q 2344 753 2344 1031 
Q 2344 1331 1650 1516 
L 1591 1531 
L 1394 1581 
Q 956 1697 753 1886 
Q 550 2075 550 2369 
Q 550 2928 970 3256 
Q 1391 3584 2113 3584 
Q 2397 3584 2667 3537 
Q 2938 3491 3200 3397 
z
" transform="scale(0.015625)"/>
       <path id="DejaVuSans-20" transform="scale(0.015625)"/>
       <path id="DejaVuSans-5b" d="M 550 4863 
L 1875 4863 
L 1875 4416 
L 1125 4416 
L 1125 -397 
L 1875 -397 
L 1875 -844 
L 550 -844 
L 550 4863 
z
" transform="scale(0.015625)"/>
       <path id="DejaVuSans-Oblique-6b" d="M 1172 4863 
L 1747 4863 
L 1197 2028 
L 3169 3500 
L 3916 3500 
L 1716 1825 
L 3322 0 
L 2625 0 
L 1131 1709 
L 800 0 
L 225 0 
L 1172 4863 
z
" transform="scale(0.015625)"/>
       <path id="DejaVuSans-Oblique-6d" d="M 5747 2113 
L 5338 0 
L 4763 0 
L 5166 2094 
Q 5191 2228 5203 2325 
Q 5216 2422 5216 2491 
Q 5216 2772 5059 2928 
Q 4903 3084 4622 3084 
Q 4203 3084 3875 2770 
Q 3547 2456 3450 1953 
L 3066 0 
L 2491 0 
L 2900 2094 
Q 2925 2209 2937 2307 
Q 2950 2406 2950 2484 
Q 2950 2769 2794 2926 
Q 2638 3084 2363 3084 
Q 1938 3084 1609 2770 
Q 1281 2456 1184 1953 
L 800 0 
L 225 0 
L 909 3500 
L 1484 3500 
L 1375 2956 
Q 1609 3263 1923 3423 
Q 2238 3584 2597 3584 
Q 2978 3584 3223 3384 
Q 3469 3184 3519 2828 
Q 3781 3197 4126 3390 
Q 4472 3584 4856 3584 
Q 5306 3584 5551 3325 
Q 5797 3066 5797 2591 
Q 5797 2488 5784 2364 
Q 5772 2241 5747 2113 
z
" transform="scale(0.015625)"/>
       <path id="DejaVuSans-5d" d="M 1947 4863 
L 1947 -844 
L 622 -844 
L 622 -397 
L 1369 -397 
L 1369 4416 
L 622 4416 
L 622 4863 
L 1947 4863 
z
" transform="scale(0.015625)"/>
      </defs>
      <use xlink:href="#DejaVuSans-Oblique-52" transform="translate(0 0.015625)"/>
      <use xlink:href="#DejaVuSans-Oblique-61" transform="translate(69.482422 0.015625)"/>
      <use xlink:href="#DejaVuSans-Oblique-64" transform="translate(130.761719 0.015625)"/>
      <use xlink:href="#DejaVuSans-Oblique-69" transform="translate(194.238281 0.015625)"/>
      <use xlink:href="#DejaVuSans-Oblique-75" transform="translate(222.021484 0.015625)"/>
      <use xlink:href="#DejaVuSans-Oblique-73" transform="translate(285.400391 0.015625)"/>
      <use xlink:href="#DejaVuSans-20" transform="translate(337.5 0.015625)"/>
      <use xlink:href="#DejaVuSans-5b" transform="translate(369.287109 0.015625)"/>
      <use xlink:href="#DejaVuSans-Oblique-6b" transform="translate(408.300781 0.015625)"/>
      <use xlink:href="#DejaVuSans-Oblique-6d" transform="translate(466.210938 0.015625)"/>
      <use xlink:href="#DejaVuSans-5d" transform="translate(563.623047 0.015625)"/>
     </g>
    </g>
   </g>
   <g id="matplotlib.axis_2">
    <g id="ytick_1">
     <g id="line2d_11">
      <path d="M 57.6 295.488334 
L 414.72 295.488334 
" clip-path="url(#p83137395d9)" style="fill: none; stroke-dasharray: 2.96,1.28; stroke-dashoffset: 0; stroke: #b0b0b0; stroke-opacity: 0.5; stroke-width: 0.8"/>
     </g>
     <g id="line2d_12">
      <defs>
       <path id="ma3748d87c8" d="M 0 0 
L -3.5 0 
" style="stroke: #000000; stroke-width: 0.8"/>
      </defs>
      <g>
       <use xlink:href="#ma3748d87c8" x="57.6" y="295.488334" style="stroke: #000000; stroke-width: 0.8"/>
      </g>
     </g>
     <g id="text_7">
      <!-- 0.00 -->
      <g transform="translate(28.334375 299.287552) scale(0.1 -0.1)">
       <defs>
        <path id="DejaVuSans-2e" d="M 684 794 
L 1344 794 
L 1344 0 
L 684 0 
L 684 794 
z
" transform="scale(0.015625)"/>
       </defs>
       <use xlink:href="#DejaVuSans-30"/>
       <use xlink:href="#DejaVuSans-2e" x="63.623047"/>
       <use xlink:href="#DejaVuSans-30" x="95.410156"/>
       <use xlink:href="#DejaVuSans-30" x="159.033203"/>
      </g>
     </g>
    </g>
    <g id="ytick_2">
     <g id="line2d_13">
      <path d="M 57.6 265.248566 
L 414.72 265.248566 
" clip-path="url(#p83137395d9)" style="fill: none; stroke-dasharray: 2.96,1.28; stroke-dashoffset: 0; stroke: #b0b0b0; stroke-opacity: 0.5; stroke-width: 0.8"/>
     </g>
     <g id="line2d_14">
      <g>
       <use xlink:href="#ma3748d87c8" x="57.6" y="265.248566" style="stroke: #000000; stroke-width: 0.8"/>
      </g>
     </g>
     <g id="text_8">
      <!-- 0.25 -->
      <g transform="translate(28.334375 269.047785) scale(0.1 -0.1)">
       <use xlink:href="#DejaVuSans-30"/>
       <use xlink:href="#DejaVuSans-2e" x="63.623047"/>
       <use xlink:href="#DejaVuSans-32" x="95.410156"/>
       <use xlink:href="#DejaVuSans-35" x="159.033203"/>
      </g>
     </g>
    </g>
    <g id="ytick_3">
     <g id="line2d_15">
      <path d="M 57.6 235.008798 
L 414.72 235.008798 
" clip-path="url(#p83137395d9)" style="fill: none; stroke-dasharray: 2.96,1.28; stroke-dashoffset: 0; stroke: #b0b0b0; stroke-opacity: 0.5; stroke-width: 0.8"/>
     </g>
     <g id="line2d_16">
      <g>
       <use xlink:href="#ma3748d87c8" x="57.6" y="235.008798" style="stroke: #000000; stroke-width: 0.8"/>
      </g>
     </g>
     <g id="text_9">
      <!-- 0.50 -->
      <g transform="translate(28.334375 238.808017) scale(0.1 -0.1)">
       <use xlink:href="#DejaVuSans-30"/>
       <use xlink:href="#DejaVuSans-2e" x="63.623047"/>
       <use xlink:href="#DejaVuSans-35" x="95.410156"/>
       <use xlink:href="#DejaVuSans-30" x="159.033203"/>
      </g>
     </g>
    </g>
    <g id="ytick_4">
     <g id="line2d_17">
      <path d="M 57.6 204.76903 
L 414.72 204.76903 
" clip-path="url(#p83137395d9)" style="fill: none; stroke-dasharray: 2.96,1.28; stroke-dashoffset: 0; stroke: #b0b0b0; stroke-opacity: 0.5; stroke-width: 0.8"/>
     </g>
     <g id="line2d_18">
      <g>
       <use xlink:href="#ma3748d87c8" x="57.6" y="204.76903" style="stroke: #000000; stroke-width: 0.8"/>
      </g>
     </g>
     <g id="text_10">
      <!-- 0.75 -->
      <g transform="translate(28.334375 208.568249) scale(0.1 -0.1)">
       <defs>
        <path id="DejaVuSans-37" d="M 525 4666 
L 3525 4666 
L 3525 4397 
L 1831 0 
L 1172 0 
L 2766 4134 
L 525 4134 
L 525 4666 
z
" transform="scale(0.015625)"/>
       </defs>
       <use xlink:href="#DejaVuSans-30"/>
       <use xlink:href="#DejaVuSans-2e" x="63.623047"/>
       <use xlink:href="#DejaVuSans-37" x="95.410156"/>
       <use xlink:href="#DejaVuSans-35" x="159.033203"/>
      </g>
     </g>
    </g>
    <g id="ytick_5">
     <g id="line2d_19">
      <path d="M 57.6 174.529263 
L 414.72 174.529263 
" clip-path="url(#p83137395d9)" style="fill: none; stroke-dasharray: 2.96,1.28; stroke-dashoffset: 0; stroke: #b0b0b0; stroke-opacity: 0.5; stroke-width: 0.8"/>
     </g>
     <g id="line2d_20">
      <g>
       <use xlink:href="#ma3748d87c8" x="57.6" y="174.529263" style="stroke: #000000; stroke-width: 0.8"/>
      </g>
     </g>
     <g id="text_11">
      <!-- 1.00 -->
      <g transform="translate(28.334375 178.328481) scale(0.1 -0.1)">
       <use xlink:href="#DejaVuSans-31"/>
       <use xlink:href="#DejaVuSans-2e" x="63.623047"/>
       <use xlink:href="#DejaVuSans-30" x="95.410156"/>
       <use xlink:href="#DejaVuSans-30" x="159.033203"/>
      </g>
     </g>
    </g>
    <g id="ytick_6">
     <g id="line2d_21">
      <path d="M 57.6 144.289495 
L 414.72 144.289495 
" clip-path="url(#p83137395d9)" style="fill: none; stroke-dasharray: 2.96,1.28; stroke-dashoffset: 0; stroke: #b0b0b0; stroke-opacity: 0.5; stroke-width: 0.8"/>
     </g>
     <g id="line2d_22">
      <g>
       <use xlink:href="#ma3748d87c8" x="57.6" y="144.289495" style="stroke: #000000; stroke-width: 0.8"/>
      </g>
     </g>
     <g id="text_12">
      <!-- 1.25 -->
      <g transform="translate(28.334375 148.088714) scale(0.1 -0.1)">
       <use xlink:href="#DejaVuSans-31"/>
       <use xlink:href="#DejaVuSans-2e" x="63.623047"/>
       <use xlink:href="#DejaVuSans-32" x="95.410156"/>
       <use xlink:href="#DejaVuSans-35" x="159.033203"/>
      </g>
     </g>
    </g>
    <g id="ytick_7">
     <g id="line2d_23">
      <path d="M 57.6 114.049727 
L 414.72 114.049727 
" clip-path="url(#p83137395d9)" style="fill: none; stroke-dasharray: 2.96,1.28; stroke-dashoffset: 0; stroke: #b0b0b0; stroke-opacity: 0.5; stroke-width: 0.8"/>
     </g>
     <g id="line2d_24">
      <g>
       <use xlink:href="#ma3748d87c8" x="57.6" y="114.049727" style="stroke: #000000; stroke-width: 0.8"/>
      </g>
     </g>
     <g id="text_13">
      <!-- 1.50 -->
      <g transform="translate(28.334375 117.848946) scale(0.1 -0.1)">
       <use xlink:href="#DejaVuSans-31"/>
       <use xlink:href="#DejaVuSans-2e" x="63.623047"/>
       <use xlink:href="#DejaVuSans-35" x="95.410156"/>
       <use xlink:href="#DejaVuSans-30" x="159.033203"/>
      </g>
     </g>
    </g>
    <g id="ytick_8">
     <g id="line2d_25">
      <path d="M 57.6 83.809959 
L 414.72 83.809959 
" clip-path="url(#p83137395d9)" style="fill: none; stroke-dasharray: 2.96,1.28; stroke-dashoffset: 0; stroke: #b0b0b0; stroke-opacity: 0.5; stroke-width: 0.8"/>
     </g>
     <g id="line2d_26">
      <g>
       <use xlink:href="#ma3748d87c8" x="57.6" y="83.809959" style="stroke: #000000; stroke-width: 0.8"/>
      </g>
     </g>
     <g id="text_14">
      <!-- 1.75 -->
      <g transform="translate(28.334375 87.609178) scale(0.1 -0.1)">
       <use xlink:href="#DejaVuSans-31"/>
       <use xlink:href="#DejaVuSans-2e" x="63.623047"/>
       <use xlink:href="#DejaVuSans-37" x="95.410156"/>
       <use xlink:href="#DejaVuSans-35" x="159.033203"/>
      </g>
     </g>
    </g>
    <g id="ytick_9">
     <g id="line2d_27">
      <path d="M 57.6 53.570192 
L 414.72 53.570192 
" clip-path="url(#p83137395d9)" style="fill: none; stroke-dasharray: 2.96,1.28; stroke-dashoffset: 0; stroke: #b0b0b0; stroke-opacity: 0.5; stroke-width: 0.8"/>
     </g>
     <g id="line2d_28">
      <g>
       <use xlink:href="#ma3748d87c8" x="57.6" y="53.570192" style="stroke: #000000; stroke-width: 0.8"/>
      </g>
     </g>
     <g id="text_15">
      <!-- 2.00 -->
      <g transform="translate(28.334375 57.369411) scale(0.1 -0.1)">
       <use xlink:href="#DejaVuSans-32"/>
       <use xlink:href="#DejaVuSans-2e" x="63.623047"/>
       <use xlink:href="#DejaVuSans-30" x="95.410156"/>
       <use xlink:href="#DejaVuSans-30" x="159.033203"/>
      </g>
     </g>
    </g>
    <g id="text_16">
     <!-- $Mass [M_{\odot}]$ -->
     <g transform="translate(22.254687 198.428) rotate(-90) scale(0.1 -0.1)">
      <defs>
       <path id="DejaVuSans-Oblique-4d" d="M 1081 4666 
L 2028 4666 
L 2572 1522 
L 4378 4666 
L 5350 4666 
L 4441 0 
L 3828 0 
L 4622 4091 
L 2791 897 
L 2175 897 
L 1581 4103 
L 788 0 
L 172 0 
L 1081 4666 
z
" transform="scale(0.015625)"/>
       <path id="DejaVuSans-2299" d="M 2350 2403 
L 3013 2403 
L 3013 1609 
L 2350 1609 
L 2350 2403 
z
M 3306 3522 
Q 3016 3644 2681 3644 
Q 2347 3644 2056 3522 
Q 1769 3400 1531 3163 
Q 1291 2922 1172 2634 
Q 1053 2347 1053 2006 
Q 1053 1675 1172 1387 
Q 1291 1100 1531 859 
Q 1769 622 2056 500 
Q 2347 378 2681 378 
Q 3016 378 3306 500 
Q 3594 622 3831 859 
Q 4072 1100 4190 1387 
Q 4309 1675 4309 2006 
Q 4309 2347 4190 2634 
Q 4072 2922 3831 3163 
Q 3594 3400 3306 3522 
z
M 1878 3956 
Q 2250 4113 2681 4113 
Q 3113 4113 3484 3956 
Q 3856 3800 4163 3494 
Q 4472 3184 4625 2813 
Q 4778 2444 4778 2006 
Q 4778 1578 4625 1206 
Q 4472 838 4163 528 
Q 3856 222 3484 65 
Q 3113 -91 2681 -91 
Q 2250 -91 1878 65 
Q 1506 222 1200 528 
Q 891 838 738 1206 
Q 584 1578 584 2006 
Q 584 2444 738 2813 
Q 891 3184 1200 3494 
Q 1506 3800 1878 3956 
z
" transform="scale(0.015625)"/>
      </defs>
      <use xlink:href="#DejaVuSans-Oblique-4d" transform="translate(0 0.015625)"/>
      <use xlink:href="#DejaVuSans-Oblique-61" transform="translate(86.279297 0.015625)"/>
      <use xlink:href="#DejaVuSans-Oblique-73" transform="translate(147.558594 0.015625)"/>
      <use xlink:href="#DejaVuSans-Oblique-73" transform="translate(199.658203 0.015625)"/>
      <use xlink:href="#DejaVuSans-5b" transform="translate(251.757812 0.015625)"/>
      <use xlink:href="#DejaVuSans-Oblique-4d" transform="translate(290.771484 0.015625)"/>
      <use xlink:href="#DejaVuSans-2299" transform="translate(377.050781 -16.390625) scale(0.7)"/>
      <use xlink:href="#DejaVuSans-5d" transform="translate(438.4375 0.015625)"/>
     </g>
    </g>
   </g>
   <g id="line2d_29">
    <path d="M 96.256688 295.472458 
L 128.15808 295.284104 
L 137.132902 295.036046 
L 151.146258 293.998787 
L 159.085004 293.113652 
L 165.422862 292.164978 
L 169.597848 291.445325 
L 177.433493 289.729073 
L 184.84842 287.652234 
L 192.068864 285.117182 
L 195.2643 283.82345 
L 203.167972 280.029189 
L 209.003193 276.602732 
L 213.109512 273.848606 
L 219.339688 268.904016 
L 222.886655 265.789311 
L 228.273486 260.379995 
L 231.096871 257.056868 
L 234.831778 252.513233 
L 235.584846 251.385135 
L 237.340616 249.075511 
L 238.005815 247.907399 
L 241.200385 243.163391 
L 244.074181 238.303335 
L 249.205466 228.407374 
L 253.078278 219.586913 
L 253.964708 217.064606 
L 254.595276 215.762062 
L 257.774262 206.824861 
L 258.538688 204.271754 
L 260.573547 197.865743 
L 261.315573 195.299363 
L 261.772673 194.02105 
L 262.69444 190.213271 
L 263.446259 187.666826 
L 263.654373 186.41852 
L 265.019595 181.360475 
L 265.471626 178.86736 
L 265.836509 177.606444 
L 266.052745 176.370013 
L 266.421058 175.115781 
L 267.33058 170.202045 
L 267.697569 168.955369 
L 269.16924 160.525429 
L 269.339007 159.331586 
L 269.653975 158.11943 
L 269.72477 156.958462 
L 271.222482 147.682275 
L 271.324387 146.534141 
L 271.692775 144.281824 
L 272.166393 140.398465 
L 272.154073 139.561864 
L 272.331948 138.733221 
L 272.437855 137.145828 
L 272.993506 131.893675 
L 273.037298 131.194837 
L 273.233437 130.467303 
L 273.582825 126.351244 
L 273.515339 125.70606 
L 273.703595 123.748808 
L 273.813383 121.836415 
L 274.009747 115.800724 
L 273.97626 115.215929 
L 274.101483 114.06902 
L 274.139423 113.491724 
L 274.043731 112.949235 
L 274.125387 112.377504 
L 274.017991 111.829868 
L 274.120408 110.723882 
L 274.018788 110.192742 
L 274.147562 107.50986 
L 273.760068 99.020196 
L 273.684564 98.208265 
L 272.991325 90.267751 
L 272.832103 89.958007 
L 272.671332 88.377521 
L 272.570705 87.762156 
L 272.554624 87.157621 
L 272.425053 86.870213 
L 272.462376 86.562502 
L 272.368143 86.278237 
L 272.395086 85.979322 
L 272.211449 85.418088 
L 272.146415 84.569619 
L 271.684035 82.704536 
L 271.726909 82.432975 
L 271.519247 82.19253 
L 271.230079 80.432565 
L 271.043854 79.962909 
L 271.054355 79.475027 
L 270.791468 79.023857 
L 270.851687 78.778813 
L 269.132518 73.200247 
L 268.875844 72.65613 
L 268.4655 71.411847 
L 268.326271 71.247984 
L 268.40507 71.060863 
L 268.079481 70.399068 
L 268.038156 70.232985 
L 267.798737 69.921813 
L 267.188703 68.209274 
L 267.041517 67.917294 
L 264.492858 63.459624 
L 264.195476 63.022729 
L 264.213694 62.904692 
L 263.995818 62.699993 
L 264.024611 62.58556 
L 263.810616 62.38562 
L 263.442604 61.883002 
L 263.480168 61.77288 
L 263.269723 61.584707 
L 262.534541 60.675114 
L 262.544515 60.581589 
L 262.337681 60.42237 
L 262.080977 60.009108 
L 261.712182 59.712097 
L 261.686593 59.549835 
L 261.4956 59.329405 
L 261.332933 59.189392 
L 261.028601 58.915985 
L 260.937858 58.851775 
L 261.007404 58.769123 
L 260.509401 58.252258 
L 260.250575 58.144443 
L 260.324605 58.068597 
L 260.119365 57.890503 
L 259.541615 57.447307 
L 259.534259 57.386918 
L 259.373834 57.346457 
L 259.437258 57.278383 
L 259.256975 57.178845 
L 259.123839 57.021486 
L 256.326916 55.149236 
L 255.82634 54.956131 
L 255.892878 54.914618 
L 255.74521 54.896319 
L 255.275277 54.688333 
L 255.061342 54.560952 
L 254.629801 54.438012 
L 254.660174 54.37944 
L 254.296871 54.314971 
L 254.322866 54.262671 
L 253.058316 53.919633 
L 253.100769 53.899402 
L 252.860989 53.893894 
L 252.220025 53.736563 
L 248.707658 53.709801 
L 247.048423 54.038276 
L 247.055539 54.041953 
L 247.075682 54.045745 
L 246.834413 54.103192 
L 246.841814 54.116703 
L 245.961598 54.391595 
L 244.553395 54.912642 
L 244.553395 54.912642 
" clip-path="url(#p83137395d9)" style="fill: none; stroke: #ff0000; stroke-width: 0.5; stroke-linecap: square"/>
   </g>
   <g id="line2d_30">
    <path d="M 250.541535 53.587928 
" clip-path="url(#p83137395d9)" style="fill: none; stroke: #ff0000; stroke-width: 1.5; stroke-linecap: square"/>
    <defs>
     <path id="m23a3cac60d" d="M 0 2.5 
C 0.663008 2.5 1.29895 2.236584 1.767767 1.767767 
C 2.236584 1.29895 2.5 0.663008 2.5 0 
C 2.5 -0.663008 2.236584 -1.29895 1.767767 -1.767767 
C 1.29895 -2.236584 0.663008 -2.5 0 -2.5 
C -0.663008 -2.5 -1.29895 -2.236584 -1.767767 -1.767767 
C -2.236584 -1.29895 -2.5 -0.663008 -2.5 0 
C -2.5 0.663008 -2.236584 1.29895 -1.767767 1.767767 
C -1.29895 2.236584 -0.663008 2.5 0 2.5 
z
" style="stroke: #ff0000"/>
    </defs>
    <g clip-path="url(#p83137395d9)">
     <use xlink:href="#m23a3cac60d" x="250.541535" y="53.587928" style="fill: #ff0000; stroke: #ff0000"/>
    </g>
   </g>
   <g id="line2d_31">
    <path d="M 96.256688 295.472458 
L 128.15808 295.284104 
L 137.132902 295.036046 
L 151.146258 293.998787 
L 159.085004 293.113652 
L 165.422862 292.164978 
L 169.597848 291.445325 
L 177.433493 289.729073 
L 184.84842 287.652234 
L 192.068864 285.117182 
L 195.2643 283.82345 
L 203.167972 280.029189 
L 209.003193 276.602732 
L 213.109512 273.848606 
L 219.339688 268.904016 
L 222.886655 265.789311 
L 228.273486 260.379995 
L 231.096871 257.056868 
L 234.831778 252.513233 
L 235.584846 251.385135 
L 237.340616 249.075511 
L 238.005815 247.907399 
L 241.200385 243.163391 
L 244.074181 238.303335 
L 249.205466 228.407374 
L 253.078278 219.586913 
L 253.964708 217.064606 
L 254.595276 215.762062 
L 257.774262 206.824861 
L 258.538688 204.271754 
L 260.573547 197.865743 
L 261.315573 195.299363 
L 261.772673 194.02105 
L 262.69444 190.213271 
L 263.446259 187.666826 
L 263.654373 186.41852 
L 265.019595 181.360475 
L 265.471626 178.86736 
L 265.836509 177.606444 
L 266.052745 176.370013 
L 266.421058 175.115781 
L 267.33058 170.202045 
L 267.697569 168.955369 
L 269.16924 160.525429 
L 269.339007 159.331586 
L 269.653975 158.11943 
L 269.72477 156.958462 
L 271.222482 147.682275 
L 271.324387 146.534141 
L 271.692775 144.281824 
L 272.166393 140.398465 
L 272.154073 139.561864 
L 272.331948 138.733221 
L 272.437855 137.145828 
L 272.993506 131.893675 
L 273.037298 131.194837 
L 273.233437 130.467303 
L 273.582825 126.351244 
L 273.515339 125.70606 
L 273.703595 123.748808 
L 273.813383 121.836415 
L 274.009747 115.800724 
L 273.97626 115.215929 
L 274.101483 114.06902 
L 274.139423 113.491724 
L 274.043731 112.949235 
L 274.125387 112.377504 
L 274.017991 111.829868 
L 274.120408 110.723882 
L 274.018788 110.192742 
L 274.147562 107.50986 
L 273.760068 99.020196 
L 273.684564 98.208265 
L 272.991325 90.267751 
L 272.832103 89.958007 
L 272.671332 88.377521 
L 272.570705 87.762156 
L 272.554624 87.157621 
L 272.425053 86.870213 
L 272.462376 86.562502 
L 272.368143 86.278237 
L 272.395086 85.979322 
L 272.211449 85.418088 
L 272.146415 84.569619 
L 271.684035 82.704536 
L 271.726909 82.432975 
L 271.519247 82.19253 
L 271.230079 80.432565 
L 271.043854 79.962909 
L 271.054355 79.475027 
L 270.791468 79.023857 
L 270.851687 78.778813 
L 269.132518 73.200247 
L 268.875844 72.65613 
L 268.4655 71.411847 
L 268.326271 71.247984 
L 268.40507 71.060863 
L 268.079481 70.399068 
L 268.038156 70.232985 
L 267.798737 69.921813 
L 267.188703 68.209274 
L 267.041517 67.917294 
L 264.492858 63.459624 
L 264.195476 63.022729 
L 264.213694 62.904692 
L 263.995818 62.699993 
L 264.024611 62.58556 
L 263.810616 62.38562 
L 263.442604 61.883002 
L 263.480168 61.77288 
L 263.269723 61.584707 
L 262.534541 60.675114 
L 262.544515 60.581589 
L 262.337681 60.42237 
L 262.080977 60.009108 
L 261.712182 59.712097 
L 261.686593 59.549835 
L 261.4956 59.329405 
L 261.332933 59.189392 
L 261.028601 58.915985 
L 260.937858 58.851775 
L 261.007404 58.769123 
L 260.509401 58.252258 
L 260.250575 58.144443 
L 260.324605 58.068597 
L 260.119365 57.890503 
L 259.541615 57.447307 
L 259.534259 57.386918 
L 259.373834 57.346457 
L 259.437258 57.278383 
L 259.256975 57.178845 
L 259.123839 57.021486 
L 256.326916 55.149236 
L 255.82634 54.956131 
L 255.892878 54.914618 
L 255.74521 54.896319 
L 255.275277 54.688333 
L 255.061342 54.560952 
L 254.629801 54.438012 
L 254.660174 54.37944 
L 254.296871 54.314971 
L 254.322866 54.262671 
L 253.058316 53.919633 
L 253.100769 53.899402 
L 252.860989 53.893894 
L 252.220025 53.736563 
L 248.707658 53.709801 
L 247.048423 54.038276 
L 247.055539 54.041953 
L 247.075682 54.045745 
L 246.834413 54.103192 
L 246.841814 54.116703 
L 245.961598 54.391595 
L 244.553395 54.912642 
L 244.553395 54.912642 
" clip-path="url(#p83137395d9)" style="fill: none; stroke: #008000; stroke-width: 0.5; stroke-linecap: square"/>
   </g>
   <g id="line2d_32">
    <path d="M 250.541535 53.587928 
" clip-path="url(#p83137395d9)" style="fill: none; stroke: #008000; stroke-width: 1.5; stroke-linecap: square"/>
    <defs>
     <path id="m3a39291c25" d="M 0 2.5 
C 0.663008 2.5 1.29895 2.236584 1.767767 1.767767 
C 2.236584 1.29895 2.5 0.663008 2.5 0 
C 2.5 -0.663008 2.236584 -1.29895 1.767767 -1.767767 
C 1.29895 -2.236584 0.663008 -2.5 0 -2.5 
C -0.663008 -2.5 -1.29895 -2.236584 -1.767767 -1.767767 
C -2.236584 -1.29895 -2.5 -0.663008 -2.5 0 
C -2.5 0.663008 -2.236584 1.29895 -1.767767 1.767767 
C -1.29895 2.236584 -0.663008 2.5 0 2.5 
z
" style="stroke: #008000"/>
    </defs>
    <g clip-path="url(#p83137395d9)">
     <use xlink:href="#m3a39291c25" x="250.541535" y="53.587928" style="fill: #008000; stroke: #008000"/>
    </g>
   </g>
   <g id="line2d_33">
    <path d="M 96.256688 295.472458 
L 128.15808 295.284104 
L 137.132902 295.036046 
L 151.146258 293.998787 
L 159.085004 293.113652 
L 165.422862 292.164978 
L 169.597848 291.445325 
L 177.433493 289.729073 
L 184.84842 287.652234 
L 192.068864 285.117182 
L 195.2643 283.82345 
L 203.167972 280.029189 
L 209.003193 276.602732 
L 213.109512 273.848606 
L 219.339688 268.904016 
L 222.886655 265.789311 
L 228.273486 260.379995 
L 231.096871 257.056868 
L 234.831778 252.513233 
L 235.584846 251.385135 
L 237.340616 249.075511 
L 238.005815 247.907399 
L 241.200385 243.163391 
L 244.074181 238.303335 
L 249.205466 228.407374 
L 253.078278 219.586913 
L 253.964708 217.064606 
L 254.595276 215.762062 
L 257.774262 206.824861 
L 258.538688 204.271754 
L 260.573547 197.865743 
L 261.315573 195.299363 
L 261.772673 194.02105 
L 262.69444 190.213271 
L 263.446259 187.666826 
L 263.654373 186.41852 
L 265.019595 181.360475 
L 265.471626 178.86736 
L 265.836509 177.606444 
L 266.052745 176.370013 
L 266.421058 175.115781 
L 267.33058 170.202045 
L 267.697569 168.955369 
L 269.16924 160.525429 
L 269.339007 159.331586 
L 269.653975 158.11943 
L 269.72477 156.958462 
L 271.222482 147.682275 
L 271.324387 146.534141 
L 271.692775 144.281824 
L 272.166393 140.398465 
L 272.154073 139.561864 
L 272.331948 138.733221 
L 272.437855 137.145828 
L 272.993506 131.893675 
L 273.037298 131.194837 
L 273.233437 130.467303 
L 273.582825 126.351244 
L 273.515339 125.70606 
L 273.703595 123.748808 
L 273.813383 121.836415 
L 274.009747 115.800724 
L 273.97626 115.215929 
L 274.101483 114.06902 
L 274.139423 113.491724 
L 274.043731 112.949235 
L 274.125387 112.377504 
L 274.017991 111.829868 
L 274.120408 110.723882 
L 274.018788 110.192742 
L 274.147562 107.50986 
L 273.760068 99.020196 
L 273.684564 98.208265 
L 272.991325 90.267751 
L 272.832103 89.958007 
L 272.671332 88.377521 
L 272.570705 87.762156 
L 272.554624 87.157621 
L 272.425053 86.870213 
L 272.462376 86.562502 
L 272.368143 86.278237 
L 272.395086 85.979322 
L 272.211449 85.418088 
L 272.146415 84.569619 
L 271.684035 82.704536 
L 271.726909 82.432975 
L 271.519247 82.19253 
L 271.230079 80.432565 
L 271.043854 79.962909 
L 271.054355 79.475027 
L 270.791468 79.023857 
L 270.851687 78.778813 
L 269.132518 73.200247 
L 268.875844 72.65613 
L 268.4655 71.411847 
L 268.326271 71.247984 
L 268.40507 71.060863 
L 268.079481 70.399068 
L 268.038156 70.232985 
L 267.798737 69.921813 
L 267.188703 68.209274 
L 267.041517 67.917294 
L 264.492858 63.459624 
L 264.195476 63.022729 
L 264.213694 62.904692 
L 263.995818 62.699993 
L 264.024611 62.58556 
L 263.810616 62.38562 
L 263.442604 61.883002 
L 263.480168 61.77288 
L 263.269723 61.584707 
L 262.534541 60.675114 
L 262.544515 60.581589 
L 262.337681 60.42237 
L 262.080977 60.009108 
L 261.712182 59.712097 
L 261.686593 59.549835 
L 261.4956 59.329405 
L 261.332933 59.189392 
L 261.028601 58.915985 
L 260.937858 58.851775 
L 261.007404 58.769123 
L 260.509401 58.252258 
L 260.250575 58.144443 
L 260.324605 58.068597 
L 260.119365 57.890503 
L 259.541615 57.447307 
L 259.534259 57.386918 
L 259.373834 57.346457 
L 259.437258 57.278383 
L 259.256975 57.178845 
L 259.123839 57.021486 
L 256.326916 55.149236 
L 255.82634 54.956131 
L 255.892878 54.914618 
L 255.74521 54.896319 
L 255.275277 54.688333 
L 255.061342 54.560952 
L 254.629801 54.438012 
L 254.660174 54.37944 
L 254.296871 54.314971 
L 254.322866 54.262671 
L 253.058316 53.919633 
L 253.100769 53.899402 
L 252.860989 53.893894 
L 252.220025 53.736563 
L 248.707658 53.709801 
L 247.048423 54.038276 
L 247.055539 54.041953 
L 247.075682 54.045745 
L 246.834413 54.103192 
L 246.841814 54.116703 
L 245.961598 54.391595 
L 244.553395 54.912642 
L 244.553395 54.912642 
" clip-path="url(#p83137395d9)" style="fill: none; stroke: #0000ff; stroke-width: 0.5; stroke-linecap: square"/>
   </g>
   <g id="line2d_34">
    <path d="M 250.541535 53.587928 
" clip-path="url(#p83137395d9)" style="fill: none; stroke: #0000ff; stroke-width: 1.5; stroke-linecap: square"/>
    <defs>
     <path id="m948ec0d752" d="M 0 2.5 
C 0.663008 2.5 1.29895 2.236584 1.767767 1.767767 
C 2.236584 1.29895 2.5 0.663008 2.5 0 
C 2.5 -0.663008 2.236584 -1.29895 1.767767 -1.767767 
C 1.29895 -2.236584 0.663008 -2.5 0 -2.5 
C -0.663008 -2.5 -1.29895 -2.236584 -1.767767 -1.767767 
C -2.236584 -1.29895 -2.5 -0.663008 -2.5 0 
C -2.5 0.663008 -2.236584 1.29895 -1.767767 1.767767 
C -1.29895 2.236584 -0.663008 2.5 0 2.5 
z
" style="stroke: #0000ff"/>
    </defs>
    <g clip-path="url(#p83137395d9)">
     <use xlink:href="#m948ec0d752" x="250.541535" y="53.587928" style="fill: #0000ff; stroke: #0000ff"/>
    </g>
   </g>
   <g id="line2d_35">
    <path d="M 96.256688 295.472458 
L 128.15808 295.284104 
L 137.132902 295.036046 
L 151.146258 293.998787 
L 159.085004 293.113652 
L 165.422862 292.164978 
L 169.597848 291.445325 
L 177.433493 289.729073 
L 184.84842 287.652234 
L 192.068864 285.117182 
L 195.2643 283.82345 
L 203.167972 280.029189 
L 209.003193 276.602732 
L 213.109512 273.848606 
L 219.339688 268.904016 
L 222.886655 265.789311 
L 228.273486 260.379995 
L 231.096871 257.056868 
L 234.831778 252.513233 
L 235.584846 251.385135 
L 237.340616 249.075511 
L 238.005815 247.907399 
L 241.200385 243.163391 
L 244.074181 238.303335 
L 249.205466 228.407374 
L 253.078278 219.586913 
L 253.964708 217.064606 
L 254.595276 215.762062 
L 257.774262 206.824861 
L 258.538688 204.271754 
L 260.573547 197.865743 
L 261.315573 195.299363 
L 261.772673 194.02105 
L 262.69444 190.213271 
L 263.446259 187.666826 
L 263.654373 186.41852 
L 265.019595 181.360475 
L 265.471626 178.86736 
L 265.836509 177.606444 
L 266.052745 176.370013 
L 266.421058 175.115781 
L 267.33058 170.202045 
L 267.697569 168.955369 
L 269.16924 160.525429 
L 269.339007 159.331586 
L 269.653975 158.11943 
L 269.72477 156.958462 
L 271.222482 147.682275 
L 271.324387 146.534141 
L 271.692775 144.281824 
L 272.166393 140.398465 
L 272.154073 139.561864 
L 272.331948 138.733221 
L 272.437855 137.145828 
L 272.993506 131.893675 
L 273.037298 131.194837 
L 273.233437 130.467303 
L 273.582825 126.351244 
L 273.515339 125.70606 
L 273.703595 123.748808 
L 273.813383 121.836415 
L 274.009747 115.800724 
L 273.97626 115.215929 
L 274.101483 114.06902 
L 274.139423 113.491724 
L 274.043731 112.949235 
L 274.125387 112.377504 
L 274.017991 111.829868 
L 274.120408 110.723882 
L 274.018788 110.192742 
L 274.147562 107.50986 
L 273.760068 99.020196 
L 273.684564 98.208265 
L 272.991325 90.267751 
L 272.832103 89.958007 
L 272.671332 88.377521 
L 272.570705 87.762156 
L 272.554624 87.157621 
L 272.425053 86.870213 
L 272.462376 86.562502 
L 272.368143 86.278237 
L 272.395086 85.979322 
L 272.211449 85.418088 
L 272.146415 84.569619 
L 271.684035 82.704536 
L 271.726909 82.432975 
L 271.519247 82.19253 
L 271.230079 80.432565 
L 271.043854 79.962909 
L 271.054355 79.475027 
L 270.791468 79.023857 
L 270.851687 78.778813 
L 269.132518 73.200247 
L 268.875844 72.65613 
L 268.4655 71.411847 
L 268.326271 71.247984 
L 268.40507 71.060863 
L 268.079481 70.399068 
L 268.038156 70.232985 
L 267.798737 69.921813 
L 267.188703 68.209274 
L 267.041517 67.917294 
L 264.492858 63.459624 
L 264.195476 63.022729 
L 264.213694 62.904692 
L 263.995818 62.699993 
L 264.024611 62.58556 
L 263.810616 62.38562 
L 263.442604 61.883002 
L 263.480168 61.77288 
L 263.269723 61.584707 
L 262.534541 60.675114 
L 262.544515 60.581589 
L 262.337681 60.42237 
L 262.080977 60.009108 
L 261.712182 59.712097 
L 261.686593 59.549835 
L 261.4956 59.329405 
L 261.332933 59.189392 
L 261.028601 58.915985 
L 260.937858 58.851775 
L 261.007404 58.769123 
L 260.509401 58.252258 
L 260.250575 58.144443 
L 260.324605 58.068597 
L 260.119365 57.890503 
L 259.541615 57.447307 
L 259.534259 57.386918 
L 259.373834 57.346457 
L 259.437258 57.278383 
L 259.256975 57.178845 
L 259.123839 57.021486 
L 256.326916 55.149236 
L 255.82634 54.956131 
L 255.892878 54.914618 
L 255.74521 54.896319 
L 255.275277 54.688333 
L 255.061342 54.560952 
L 254.629801 54.438012 
L 254.660174 54.37944 
L 254.296871 54.314971 
L 254.322866 54.262671 
L 253.058316 53.919633 
L 253.100769 53.899402 
L 252.860989 53.893894 
L 252.220025 53.736563 
L 248.707658 53.709801 
L 247.048423 54.038276 
L 247.055539 54.041953 
L 247.075682 54.045745 
L 246.834413 54.103192 
L 246.841814 54.116703 
L 245.961598 54.391595 
L 244.553395 54.912642 
L 244.553395 54.912642 
" clip-path="url(#p83137395d9)" style="fill: none; stroke: #00bfbf; stroke-width: 0.5; stroke-linecap: square"/>
   </g>
   <g id="line2d_36">
    <path d="M 250.541535 53.587928 
" clip-path="url(#p83137395d9)" style="fill: none; stroke: #00bfbf; stroke-width: 1.5; stroke-linecap: square"/>
    <defs>
     <path id="m621fb867c5" d="M 0 2.5 
C 0.663008 2.5 1.29895 2.236584 1.767767 1.767767 
C 2.236584 1.29895 2.5 0.663008 2.5 0 
C 2.5 -0.663008 2.236584 -1.29895 1.767767 -1.767767 
C 1.29895 -2.236584 0.663008 -2.5 0 -2.5 
C -0.663008 -2.5 -1.29895 -2.236584 -1.767767 -1.767767 
C -2.236584 -1.29895 -2.5 -0.663008 -2.5 0 
C -2.5 0.663008 -2.236584 1.29895 -1.767767 1.767767 
C -1.29895 2.236584 -0.663008 2.5 0 2.5 
z
" style="stroke: #00bfbf"/>
    </defs>
    <g clip-path="url(#p83137395d9)">
     <use xlink:href="#m621fb867c5" x="250.541535" y="53.587928" style="fill: #00bfbf; stroke: #00bfbf"/>
    </g>
   </g>
   <g id="line2d_37">
    <path d="M 398.487273 293.219131 
L 383.726904 292.775405 
L 366.061342 292.665309 
L 348.704326 292.841948 
L 317.757122 293.331927 
L 294.743377 293.494898 
L 267.958395 293.526393 
L 244.470941 293.376618 
L 228.955639 293.088121 
L 219.363201 292.697512 
L 212.586386 292.153432 
L 210.188825 291.827856 
L 207.571959 291.143389 
L 206.440905 290.376605 
L 206.264865 289.469306 
L 206.533062 288.963402 
L 208.513629 286.838356 
L 212.621061 283.617068 
L 214.589096 282.132969 
L 220.572737 277.271942 
L 222.464847 275.551409 
L 224.44755 273.675333 
L 228.279579 269.779053 
L 233.868566 263.467404 
L 235.500512 261.316754 
L 237.229293 259.138589 
L 238.704139 256.904217 
L 239.613661 255.783022 
L 240.227831 254.672018 
L 241.078622 253.552067 
L 243.861841 248.939878 
L 248.48235 240.591621 
L 251.428912 234.505329 
L 253.600728 229.565256 
L 257.570887 219.476085 
L 258.36886 216.94535 
L 258.922947 215.653628 
L 260.113167 211.848387 
L 260.94911 209.279757 
L 263.94491 199.048512 
L 264.159928 197.762038 
L 265.571696 192.672926 
L 266.947855 186.316085 
L 267.311264 185.057173 
L 267.766198 182.527253 
L 268.138617 181.273287 
L 269.25198 175.032451 
L 270.027207 171.320677 
L 270.158432 170.110755 
L 270.490987 168.875874 
L 271.048518 165.218627 
L 271.299505 164.025952 
L 271.38909 162.821553 
L 271.655858 161.616779 
L 271.988382 159.245732 
L 272.205101 158.045025 
L 272.26696 156.872998 
L 273.16547 151.040967 
L 273.195467 149.882538 
L 273.608354 147.610192 
L 273.911903 144.212466 
L 274.411622 140.328661 
L 274.550114 138.660879 
L 275.212394 131.81718 
L 275.116791 131.116726 
L 275.316074 130.403339 
L 275.368817 127.634863 
L 275.479448 126.291346 
L 275.643604 124.322933 
L 275.585475 123.685017 
L 275.729142 122.405824 
L 275.70089 121.773387 
L 275.800614 121.141902 
L 275.703011 119.90395 
L 275.795679 118.69449 
L 275.920632 116.907647 
L 275.822036 114.579195 
L 275.915773 114.010593 
L 275.816515 112.883569 
L 275.920451 110.12275 
L 275.798974 109.585381 
L 275.893568 108.515919 
L 275.78196 107.458166 
L 275.841292 106.947372 
L 275.715843 105.907009 
L 275.652329 103.897472 
L 275.549762 102.907418 
L 275.370051 99.794563 
L 275.041603 95.068446 
L 274.895259 94.704124 
L 274.726064 92.218385 
L 274.480793 91.207697 
L 274.549136 90.871176 
L 274.394442 89.897287 
L 274.311071 89.257669 
L 274.12459 88.324774 
L 273.972228 87.112416 
L 273.870248 86.816068 
L 273.833797 86.228663 
L 273.636997 85.653961 
L 273.691951 85.367663 
L 273.490878 85.089916 
L 273.368468 83.98468 
L 273.137112 83.175965 
L 272.927269 81.878071 
L 272.045699 78.738237 
L 272.079637 78.511318 
L 271.852689 78.062066 
L 271.911058 77.837065 
L 271.657227 77.39348 
L 271.690474 77.1754 
L 271.325215 76.113927 
L 271.214298 75.698805 
L 270.917202 74.689632 
L 270.89402 74.492475 
L 270.669524 74.105615 
L 270.577307 73.913231 
L 270.62844 73.721337 
L 270.472754 73.344341 
L 270.088209 72.60693 
L 270.134047 72.425447 
L 270.007726 72.066172 
L 269.470699 71.026718 
L 269.396564 70.690327 
L 269.205525 70.359545 
L 268.928316 69.552257 
L 268.599433 68.931832 
L 268.574807 68.777241 
L 268.367701 68.474361 
L 268.087424 67.738349 
L 267.974326 67.452008 
L 267.685459 67.170872 
L 267.681953 66.89223 
L 267.410988 66.619876 
L 267.326683 66.484376 
L 267.381307 66.3498 
L 267.057042 65.952789 
L 266.610683 65.061538 
L 266.46148 64.814489 
L 266.071445 64.21826 
L 265.924965 63.869223 
L 265.685952 63.529587 
L 264.589168 62.04313 
L 264.642994 61.94254 
L 263.842403 60.987569 
L 263.848074 60.897678 
L 263.46359 60.466724 
L 263.369778 60.300525 
L 263.058029 60.058178 
L 262.906299 59.744872 
L 262.732921 59.593641 
L 262.177286 59.085341 
L 262.161911 58.945674 
L 261.938423 58.809209 
L 261.911721 58.675382 
L 261.542821 58.415154 
L 260.756296 57.577154 
L 260.018979 57.044269 
L 260.01248 56.94365 
L 259.666582 56.748901 
L 259.50008 56.561361 
L 259.008891 56.251834 
L 258.954704 56.166283 
L 258.439355 55.884282 
L 257.992785 55.62316 
L 254.918338 54.187589 
L 251.544643 53.573537 
L 249.693737 53.651474 
L 249.733121 53.655843 
L 248.655006 53.809007 
L 248.735309 53.816274 
L 248.33569 53.883079 
L 248.360151 53.891601 
L 247.66306 54.056372 
L 247.701692 54.06661 
L 247.540981 54.109796 
L 246.690085 54.335302 
L 246.769079 54.347284 
L 246.538279 54.41148 
L 245.347818 54.867927 
L 245.371016 54.882938 
" clip-path="url(#p83137395d9)" style="fill: none; stroke: #bf00bf; stroke-width: 0.5; stroke-linecap: square"/>
   </g>
   <g id="line2d_38">
    <path d="M 251.178902 53.568 
" clip-path="url(#p83137395d9)" style="fill: none; stroke: #bf00bf; stroke-width: 1.5; stroke-linecap: square"/>
    <defs>
     <path id="mafd0591240" d="M 0 2.5 
C 0.663008 2.5 1.29895 2.236584 1.767767 1.767767 
C 2.236584 1.29895 2.5 0.663008 2.5 0 
C 2.5 -0.663008 2.236584 -1.29895 1.767767 -1.767767 
C 1.29895 -2.236584 0.663008 -2.5 0 -2.5 
C -0.663008 -2.5 -1.29895 -2.236584 -1.767767 -1.767767 
C -2.236584 -1.29895 -2.5 -0.663008 -2.5 0 
C -2.5 0.663008 -2.236584 1.29895 -1.767767 1.767767 
C -1.29895 2.236584 -0.663008 2.5 0 2.5 
z
" style="stroke: #bf00bf"/>
    </defs>
    <g clip-path="url(#p83137395d9)">
     <use xlink:href="#mafd0591240" x="251.178902" y="53.568" style="fill: #bf00bf; stroke: #bf00bf"/>
    </g>
   </g>
   <g id="line2d_39">
    <path d="M 73.832727 295.488 
L 106.858178 295.334772 
L 121.722694 295.016771 
L 132.582518 294.564247 
L 142.191105 293.945417 
L 150.394958 293.190991 
L 158.548767 292.167867 
L 163.383024 291.42093 
L 170.466436 290.076708 
L 176.883942 288.547702 
L 180.944746 287.416065 
L 186.966847 285.464142 
L 190.523382 284.161216 
L 194.122558 282.670297 
L 197.561189 281.132161 
L 202.308636 278.671566 
L 206.834807 276.052982 
L 211.26318 273.161631 
L 215.278364 270.240915 
L 219.010925 267.142405 
L 221.36528 265.0243 
L 224.845318 261.746266 
L 227.945641 258.438482 
L 229.941868 256.19602 
L 232.76253 252.772711 
L 233.538118 251.658827 
L 235.287374 249.346921 
L 237.812023 245.799705 
L 243.024468 237.365714 
L 246.956657 229.9359 
L 249.98095 223.627826 
L 251.142512 221.090494 
L 251.582808 219.834712 
L 252.253031 218.549953 
L 253.19795 215.99464 
L 254.288131 213.426047 
L 254.63785 212.192557 
L 255.238345 210.869465 
L 256.493509 207.055954 
L 257.075155 205.755032 
L 258.275455 201.914269 
L 259.472595 198.07135 
L 260.325147 195.479289 
L 260.993128 192.970168 
L 261.755343 190.391128 
L 262.431794 187.852786 
L 263.032575 185.348316 
L 263.635478 182.824394 
L 264.870528 177.795606 
L 265.106788 176.566903 
L 265.518126 175.280797 
L 266.225762 171.592425 
L 267.18076 166.72667 
L 267.738126 164.270246 
L 269.377278 154.773787 
L 269.504697 153.606489 
L 269.976691 151.262955 
L 270.482261 147.830319 
L 270.685997 146.663772 
L 270.727713 145.571052 
L 271.869718 137.273555 
L 271.86003 136.529973 
L 272.062893 135.719961 
L 272.329511 132.769094 
L 272.655251 129.893251 
L 272.810786 127.182366 
L 272.975198 126.468445 
L 272.897257 125.852403 
L 273.081541 124.509319 
L 273.205501 120.748814 
L 273.376231 118.880472 
L 273.350581 118.292346 
L 273.513835 116.478365 
L 273.474947 115.336028 
L 273.554858 114.747441 
L 273.453871 114.216502 
L 273.533632 113.067749 
L 273.561583 111.93872 
L 273.434013 101.68824 
L 273.299523 101.285649 
L 273.300606 99.966486 
L 273.327324 99.112552 
L 273.202868 98.733955 
L 273.237348 98.310586 
L 273.133863 97.937612 
L 273.231135 97.50177 
L 273.105461 97.14287 
L 272.911052 93.76141 
L 272.713875 92.739907 
L 272.74631 92.36914 
L 272.645788 92.048279 
L 272.677485 91.693517 
L 272.473674 90.718936 
L 272.370294 89.412736 
L 272.242243 88.801524 
L 272.019703 86.654224 
L 271.812387 86.111923 
L 271.70305 84.656309 
L 271.576744 84.40903 
L 271.556886 83.836852 
L 271.374889 83.326057 
L 271.207198 81.996094 
L 270.997595 81.793155 
L 270.708698 80.043903 
L 270.601196 79.567744 
L 270.587205 79.318663 
L 270.401763 79.127922 
L 270.377663 78.639363 
L 270.229408 78.441672 
L 270.209536 77.961822 
L 269.897486 76.87562 
L 269.740596 76.691685 
L 269.781515 76.447607 
L 269.616908 76.273665 
L 269.522419 75.621647 
L 269.271326 74.600274 
L 269.007295 74.257798 
L 268.928362 73.645678 
L 268.805124 73.27021 
L 268.385393 72.388591 
L 268.330935 72.006058 
L 267.969106 71.344825 
L 267.876272 70.802813 
L 267.700322 70.485008 
L 267.521212 70.174384 
L 267.435509 69.836364 
L 266.873435 68.431867 
L 266.692926 68.150428 
L 266.70469 67.979702 
L 266.475381 67.718205 
L 265.991232 66.742629 
L 265.74047 66.352381 
L 265.198344 65.317396 
L 264.928446 64.821411 
L 264.982016 64.661989 
L 264.686169 64.474147 
L 264.699031 64.32841 
L 264.512836 64.109133 
L 264.51425 63.971312 
L 264.241961 63.651157 
L 264.033577 63.318371 
L 263.523328 62.450969 
L 263.373433 62.374719 
L 263.312206 62.145926 
L 262.095734 60.478187 
L 261.949285 60.318377 
L 261.470266 59.678917 
L 260.904747 59.026553 
L 260.855193 58.953663 
L 260.646147 58.930318 
L 260.690586 58.829281 
L 260.288726 58.528376 
L 260.164075 58.319452 
L 259.947311 58.225899 
L 260.019656 58.123405 
L 259.829008 58.102598 
L 259.857125 58.01464 
L 259.669561 57.838203 
L 259.338451 57.638768 
L 259.168804 57.326789 
L 258.769427 57.0969 
L 258.564668 56.821185 
L 258.449976 56.724186 
L 258.12371 56.629349 
L 258.146832 56.557987 
L 258.04094 56.528499 
L 257.985805 56.420137 
L 257.77369 56.301191 
L 257.429417 56.050005 
L 257.282095 55.924296 
L 256.761917 55.591091 
L 256.418787 55.489506 
L 256.435019 55.382197 
L 256.060118 55.298103 
L 256.15244 55.221968 
L 256.025969 55.210317 
L 256.019064 55.166006 
L 255.708548 55.071299 
L 255.720222 55.023124 
L 255.456026 54.967018 
L 255.506783 54.907321 
L 255.269726 54.890681 
L 255.339784 54.826904 
L 255.188024 54.743935 
L 254.875659 54.712688 
L 254.910319 54.660605 
L 254.260556 54.463635 
L 254.290869 54.417147 
L 253.99469 54.361516 
L 254.077264 54.303954 
L 253.89471 54.322872 
L 253.302864 54.128181 
L 253.131082 54.066134 
L 252.241402 53.855812 
L 252.138895 53.841393 
L 252.154616 53.795236 
L 251.718517 53.757544 
L 250.726812 53.684048 
L 250.731235 53.666542 
L 250.749212 53.647177 
L 250.623522 53.640472 
L 249.805496 53.650162 
L 249.805842 53.639794 
L 249.722831 53.652238 
L 248.716339 53.732295 
L 248.744861 53.718078 
L 248.371539 53.78086 
L 248.439717 53.756491 
L 246.165078 54.283579 
L 246.178466 54.28071 
L 244.558089 54.876709 
L 244.594811 54.873205 
L 244.395377 54.942995 
L 244.441591 54.93665 
" clip-path="url(#p83137395d9)" style="fill: none; stroke: #bfbf00; stroke-width: 0.5; stroke-linecap: square"/>
   </g>
   <g id="line2d_40">
    <path d="M 250.053746 53.625447 
" clip-path="url(#p83137395d9)" style="fill: none; stroke: #bfbf00; stroke-width: 1.5; stroke-linecap: square"/>
    <defs>
     <path id="m8e74337268" d="M 0 2.5 
C 0.663008 2.5 1.29895 2.236584 1.767767 1.767767 
C 2.236584 1.29895 2.5 0.663008 2.5 0 
C 2.5 -0.663008 2.236584 -1.29895 1.767767 -1.767767 
C 1.29895 -2.236584 0.663008 -2.5 0 -2.5 
C -0.663008 -2.5 -1.29895 -2.236584 -1.767767 -1.767767 
C -2.236584 -1.29895 -2.5 -0.663008 -2.5 0 
C -2.5 0.663008 -2.236584 1.29895 -1.767767 1.767767 
C -1.29895 2.236584 -0.663008 2.5 0 2.5 
z
" style="stroke: #bfbf00"/>
    </defs>
    <g clip-path="url(#p83137395d9)">
     <use xlink:href="#m8e74337268" x="250.053746" y="53.625447" style="fill: #bfbf00; stroke: #bfbf00"/>
    </g>
   </g>
   <g id="patch_3">
    <path d="M 57.6 307.584 
L 57.6 41.472 
" style="fill: none; stroke: #000000; stroke-width: 0.8; stroke-linejoin: miter; stroke-linecap: square"/>
   </g>
   <g id="patch_4">
    <path d="M 414.72 307.584 
L 414.72 41.472 
" style="fill: none; stroke: #000000; stroke-width: 0.8; stroke-linejoin: miter; stroke-linecap: square"/>
   </g>
   <g id="patch_5">
    <path d="M 57.6 307.584 
L 414.72 307.584 
" style="fill: none; stroke: #000000; stroke-width: 0.8; stroke-linejoin: miter; stroke-linecap: square"/>
   </g>
   <g id="patch_6">
    <path d="M 57.6 41.472 
L 414.72 41.472 
" style="fill: none; stroke: #000000; stroke-width: 0.8; stroke-linejoin: miter; stroke-linecap: square"/>
   </g>
   <g id="text_17">
    <!-- GM1 - Mass-Radius Diagram for $B=10^{17}$ G -->
    <g transform="translate(108 35.472) scale(0.12 -0.12)">
     <defs>
      <path id="DejaVuSans-47" d="M 3809 666 
L 3809 1919 
L 2778 1919 
L 2778 2438 
L 4434 2438 
L 4434 434 
Q 4069 175 3628 42 
Q 3188 -91 2688 -91 
Q 1594 -91 976 548 
Q 359 1188 359 2328 
Q 359 3472 976 4111 
Q 1594 4750 2688 4750 
Q 3144 4750 3555 4637 
Q 3966 4525 4313 4306 
L 4313 3634 
Q 3963 3931 3569 4081 
Q 3175 4231 2741 4231 
Q 1884 4231 1454 3753 
Q 1025 3275 1025 2328 
Q 1025 1384 1454 906 
Q 1884 428 2741 428 
Q 3075 428 3337 486 
Q 3600 544 3809 666 
z
" transform="scale(0.015625)"/>
      <path id="DejaVuSans-4d" d="M 628 4666 
L 1569 4666 
L 2759 1491 
L 3956 4666 
L 4897 4666 
L 4897 0 
L 4281 0 
L 4281 4097 
L 3078 897 
L 2444 897 
L 1241 4097 
L 1241 0 
L 628 0 
L 628 4666 
z
" transform="scale(0.015625)"/>
      <path id="DejaVuSans-2d" d="M 313 2009 
L 1997 2009 
L 1997 1497 
L 313 1497 
L 313 2009 
z
" transform="scale(0.015625)"/>
      <path id="DejaVuSans-61" d="M 2194 1759 
Q 1497 1759 1228 1600 
Q 959 1441 959 1056 
Q 959 750 1161 570 
Q 1363 391 1709 391 
Q 2188 391 2477 730 
Q 2766 1069 2766 1631 
L 2766 1759 
L 2194 1759 
z
M 3341 1997 
L 3341 0 
L 2766 0 
L 2766 531 
Q 2569 213 2275 61 
Q 1981 -91 1556 -91 
Q 1019 -91 701 211 
Q 384 513 384 1019 
Q 384 1609 779 1909 
Q 1175 2209 1959 2209 
L 2766 2209 
L 2766 2266 
Q 2766 2663 2505 2880 
Q 2244 3097 1772 3097 
Q 1472 3097 1187 3025 
Q 903 2953 641 2809 
L 641 3341 
Q 956 3463 1253 3523 
Q 1550 3584 1831 3584 
Q 2591 3584 2966 3190 
Q 3341 2797 3341 1997 
z
" transform="scale(0.015625)"/>
      <path id="DejaVuSans-73" d="M 2834 3397 
L 2834 2853 
Q 2591 2978 2328 3040 
Q 2066 3103 1784 3103 
Q 1356 3103 1142 2972 
Q 928 2841 928 2578 
Q 928 2378 1081 2264 
Q 1234 2150 1697 2047 
L 1894 2003 
Q 2506 1872 2764 1633 
Q 3022 1394 3022 966 
Q 3022 478 2636 193 
Q 2250 -91 1575 -91 
Q 1294 -91 989 -36 
Q 684 19 347 128 
L 347 722 
Q 666 556 975 473 
Q 1284 391 1588 391 
Q 1994 391 2212 530 
Q 2431 669 2431 922 
Q 2431 1156 2273 1281 
Q 2116 1406 1581 1522 
L 1381 1569 
Q 847 1681 609 1914 
Q 372 2147 372 2553 
Q 372 3047 722 3315 
Q 1072 3584 1716 3584 
Q 2034 3584 2315 3537 
Q 2597 3491 2834 3397 
z
" transform="scale(0.015625)"/>
      <path id="DejaVuSans-52" d="M 2841 2188 
Q 3044 2119 3236 1894 
Q 3428 1669 3622 1275 
L 4263 0 
L 3584 0 
L 2988 1197 
Q 2756 1666 2539 1819 
Q 2322 1972 1947 1972 
L 1259 1972 
L 1259 0 
L 628 0 
L 628 4666 
L 2053 4666 
Q 2853 4666 3247 4331 
Q 3641 3997 3641 3322 
Q 3641 2881 3436 2590 
Q 3231 2300 2841 2188 
z
M 1259 4147 
L 1259 2491 
L 2053 2491 
Q 2509 2491 2742 2702 
Q 2975 2913 2975 3322 
Q 2975 3731 2742 3939 
Q 2509 4147 2053 4147 
L 1259 4147 
z
" transform="scale(0.015625)"/>
      <path id="DejaVuSans-64" d="M 2906 2969 
L 2906 4863 
L 3481 4863 
L 3481 0 
L 2906 0 
L 2906 525 
Q 2725 213 2448 61 
Q 2172 -91 1784 -91 
Q 1150 -91 751 415 
Q 353 922 353 1747 
Q 353 2572 751 3078 
Q 1150 3584 1784 3584 
Q 2172 3584 2448 3432 
Q 2725 3281 2906 2969 
z
M 947 1747 
Q 947 1113 1208 752 
Q 1469 391 1925 391 
Q 2381 391 2643 752 
Q 2906 1113 2906 1747 
Q 2906 2381 2643 2742 
Q 2381 3103 1925 3103 
Q 1469 3103 1208 2742 
Q 947 2381 947 1747 
z
" transform="scale(0.015625)"/>
      <path id="DejaVuSans-69" d="M 603 3500 
L 1178 3500 
L 1178 0 
L 603 0 
L 603 3500 
z
M 603 4863 
L 1178 4863 
L 1178 4134 
L 603 4134 
L 603 4863 
z
" transform="scale(0.015625)"/>
      <path id="DejaVuSans-75" d="M 544 1381 
L 544 3500 
L 1119 3500 
L 1119 1403 
Q 1119 906 1312 657 
Q 1506 409 1894 409 
Q 2359 409 2629 706 
Q 2900 1003 2900 1516 
L 2900 3500 
L 3475 3500 
L 3475 0 
L 2900 0 
L 2900 538 
Q 2691 219 2414 64 
Q 2138 -91 1772 -91 
Q 1169 -91 856 284 
Q 544 659 544 1381 
z
M 1991 3584 
L 1991 3584 
z
" transform="scale(0.015625)"/>
      <path id="DejaVuSans-44" d="M 1259 4147 
L 1259 519 
L 2022 519 
Q 2988 519 3436 956 
Q 3884 1394 3884 2338 
Q 3884 3275 3436 3711 
Q 2988 4147 2022 4147 
L 1259 4147 
z
M 628 4666 
L 1925 4666 
Q 3281 4666 3915 4102 
Q 4550 3538 4550 2338 
Q 4550 1131 3912 565 
Q 3275 0 1925 0 
L 628 0 
L 628 4666 
z
" transform="scale(0.015625)"/>
      <path id="DejaVuSans-67" d="M 2906 1791 
Q 2906 2416 2648 2759 
Q 2391 3103 1925 3103 
Q 1463 3103 1205 2759 
Q 947 2416 947 1791 
Q 947 1169 1205 825 
Q 1463 481 1925 481 
Q 2391 481 2648 825 
Q 2906 1169 2906 1791 
z
M 3481 434 
Q 3481 -459 3084 -895 
Q 2688 -1331 1869 -1331 
Q 1566 -1331 1297 -1286 
Q 1028 -1241 775 -1147 
L 775 -588 
Q 1028 -725 1275 -790 
Q 1522 -856 1778 -856 
Q 2344 -856 2625 -561 
Q 2906 -266 2906 331 
L 2906 616 
Q 2728 306 2450 153 
Q 2172 0 1784 0 
Q 1141 0 747 490 
Q 353 981 353 1791 
Q 353 2603 747 3093 
Q 1141 3584 1784 3584 
Q 2172 3584 2450 3431 
Q 2728 3278 2906 2969 
L 2906 3500 
L 3481 3500 
L 3481 434 
z
" transform="scale(0.015625)"/>
      <path id="DejaVuSans-72" d="M 2631 2963 
Q 2534 3019 2420 3045 
Q 2306 3072 2169 3072 
Q 1681 3072 1420 2755 
Q 1159 2438 1159 1844 
L 1159 0 
L 581 0 
L 581 3500 
L 1159 3500 
L 1159 2956 
Q 1341 3275 1631 3429 
Q 1922 3584 2338 3584 
Q 2397 3584 2469 3576 
Q 2541 3569 2628 3553 
L 2631 2963 
z
" transform="scale(0.015625)"/>
      <path id="DejaVuSans-6d" d="M 3328 2828 
Q 3544 3216 3844 3400 
Q 4144 3584 4550 3584 
Q 5097 3584 5394 3201 
Q 5691 2819 5691 2113 
L 5691 0 
L 5113 0 
L 5113 2094 
Q 5113 2597 4934 2840 
Q 4756 3084 4391 3084 
Q 3944 3084 3684 2787 
Q 3425 2491 3425 1978 
L 3425 0 
L 2847 0 
L 2847 2094 
Q 2847 2600 2669 2842 
Q 2491 3084 2119 3084 
Q 1678 3084 1418 2786 
Q 1159 2488 1159 1978 
L 1159 0 
L 581 0 
L 581 3500 
L 1159 3500 
L 1159 2956 
Q 1356 3278 1631 3431 
Q 1906 3584 2284 3584 
Q 2666 3584 2933 3390 
Q 3200 3197 3328 2828 
z
" transform="scale(0.015625)"/>
      <path id="DejaVuSans-66" d="M 2375 4863 
L 2375 4384 
L 1825 4384 
Q 1516 4384 1395 4259 
Q 1275 4134 1275 3809 
L 1275 3500 
L 2222 3500 
L 2222 3053 
L 1275 3053 
L 1275 0 
L 697 0 
L 697 3053 
L 147 3053 
L 147 3500 
L 697 3500 
L 697 3744 
Q 697 4328 969 4595 
Q 1241 4863 1831 4863 
L 2375 4863 
z
" transform="scale(0.015625)"/>
      <path id="DejaVuSans-6f" d="M 1959 3097 
Q 1497 3097 1228 2736 
Q 959 2375 959 1747 
Q 959 1119 1226 758 
Q 1494 397 1959 397 
Q 2419 397 2687 759 
Q 2956 1122 2956 1747 
Q 2956 2369 2687 2733 
Q 2419 3097 1959 3097 
z
M 1959 3584 
Q 2709 3584 3137 3096 
Q 3566 2609 3566 1747 
Q 3566 888 3137 398 
Q 2709 -91 1959 -91 
Q 1206 -91 779 398 
Q 353 888 353 1747 
Q 353 2609 779 3096 
Q 1206 3584 1959 3584 
z
" transform="scale(0.015625)"/>
      <path id="DejaVuSans-Oblique-42" d="M 1081 4666 
L 2694 4666 
Q 3350 4666 3675 4422 
Q 4000 4178 4000 3688 
Q 4000 3238 3720 2911 
Q 3441 2584 2988 2516 
Q 3375 2428 3569 2181 
Q 3763 1934 3763 1522 
Q 3763 819 3242 409 
Q 2722 0 1819 0 
L 172 0 
L 1081 4666 
z
M 1234 2228 
L 903 519 
L 1919 519 
Q 2491 519 2800 781 
Q 3109 1044 3109 1522 
Q 3109 1891 2904 2059 
Q 2700 2228 2247 2228 
L 1234 2228 
z
M 1606 4147 
L 1331 2741 
L 2272 2741 
Q 2775 2741 3058 2959 
Q 3341 3178 3341 3566 
Q 3341 3869 3150 4008 
Q 2959 4147 2541 4147 
L 1606 4147 
z
" transform="scale(0.015625)"/>
      <path id="DejaVuSans-3d" d="M 678 2906 
L 4684 2906 
L 4684 2381 
L 678 2381 
L 678 2906 
z
M 678 1631 
L 4684 1631 
L 4684 1100 
L 678 1100 
L 678 1631 
z
" transform="scale(0.015625)"/>
     </defs>
     <use xlink:href="#DejaVuSans-47" transform="translate(0 0.684375)"/>
     <use xlink:href="#DejaVuSans-4d" transform="translate(77.490234 0.684375)"/>
     <use xlink:href="#DejaVuSans-31" transform="translate(163.769531 0.684375)"/>
     <use xlink:href="#DejaVuSans-20" transform="translate(227.392578 0.684375)"/>
     <use xlink:href="#DejaVuSans-2d" transform="translate(259.179688 0.684375)"/>
     <use xlink:href="#DejaVuSans-20" transform="translate(295.263672 0.684375)"/>
     <use xlink:href="#DejaVuSans-4d" transform="translate(327.050781 0.684375)"/>
     <use xlink:href="#DejaVuSans-61" transform="translate(413.330078 0.684375)"/>
     <use xlink:href="#DejaVuSans-73" transform="translate(474.609375 0.684375)"/>
     <use xlink:href="#DejaVuSans-73" transform="translate(526.708984 0.684375)"/>
     <use xlink:href="#DejaVuSans-2d" transform="translate(578.808594 0.684375)"/>
     <use xlink:href="#DejaVuSans-52" transform="translate(614.892578 0.684375)"/>
     <use xlink:href="#DejaVuSans-61" transform="translate(684.375 0.684375)"/>
     <use xlink:href="#DejaVuSans-64" transform="translate(745.654297 0.684375)"/>
     <use xlink:href="#DejaVuSans-69" transform="translate(809.130859 0.684375)"/>
     <use xlink:href="#DejaVuSans-75" transform="translate(836.914062 0.684375)"/>
     <use xlink:href="#DejaVuSans-73" transform="translate(900.292969 0.684375)"/>
     <use xlink:href="#DejaVuSans-20" transform="translate(952.392578 0.684375)"/>
     <use xlink:href="#DejaVuSans-44" transform="translate(984.179688 0.684375)"/>
     <use xlink:href="#DejaVuSans-69" transform="translate(1061.181641 0.684375)"/>
     <use xlink:href="#DejaVuSans-61" transform="translate(1088.964844 0.684375)"/>
     <use xlink:href="#DejaVuSans-67" transform="translate(1150.244141 0.684375)"/>
     <use xlink:href="#DejaVuSans-72" transform="translate(1213.720703 0.684375)"/>
     <use xlink:href="#DejaVuSans-61" transform="translate(1254.833984 0.684375)"/>
     <use xlink:href="#DejaVuSans-6d" transform="translate(1316.113281 0.684375)"/>
     <use xlink:href="#DejaVuSans-20" transform="translate(1413.525391 0.684375)"/>
     <use xlink:href="#DejaVuSans-66" transform="translate(1445.3125 0.684375)"/>
     <use xlink:href="#DejaVuSans-6f" transform="translate(1480.517578 0.684375)"/>
     <use xlink:href="#DejaVuSans-72" transform="translate(1541.699219 0.684375)"/>
     <use xlink:href="#DejaVuSans-20" transform="translate(1582.8125 0.684375)"/>
     <use xlink:href="#DejaVuSans-Oblique-42" transform="translate(1614.599609 0.684375)"/>
     <use xlink:href="#DejaVuSans-3d" transform="translate(1702.685547 0.684375)"/>
     <use xlink:href="#DejaVuSans-31" transform="translate(1805.957031 0.684375)"/>
     <use xlink:href="#DejaVuSans-30" transform="translate(1869.580078 0.684375)"/>
     <use xlink:href="#DejaVuSans-31" transform="translate(1934.160156 38.965625) scale(0.7)"/>
     <use xlink:href="#DejaVuSans-37" transform="translate(1978.696289 38.965625) scale(0.7)"/>
     <use xlink:href="#DejaVuSans-20" transform="translate(2025.966797 0.684375)"/>
     <use xlink:href="#DejaVuSans-47" transform="translate(2057.753906 0.684375)"/>
    </g>
   </g>
   <g id="legend_1">
    <g id="patch_7">
     <path d="M 61.8 104.472 
L 222.06 104.472 
Q 223.26 104.472 223.26 103.272 
L 223.26 45.672 
Q 223.26 44.472 222.06 44.472 
L 61.8 44.472 
Q 60.6 44.472 60.6 45.672 
L 60.6 103.272 
Q 60.6 104.472 61.8 104.472 
z
" style="fill: #ffffff; opacity: 0.8; stroke: #cccccc; stroke-linejoin: miter"/>
    </g>
    <g id="line2d_41">
     <path d="M 63 50.232 
L 69 50.232 
L 75 50.232 
" style="fill: none; stroke: #ff0000; stroke-width: 0.5; stroke-linecap: square"/>
    </g>
    <g id="text_18">
     <!-- $\xi =0.0 \times 10^{0} : R_{max}=11.53 km, M_{max}=2.0 M_\odot$ -->
     <g transform="translate(79.8 52.332) scale(0.06 -0.06)">
      <defs>
       <path id="DejaVuSans-Oblique-3be" d="M 2016 397 
Q 2428 394 2628 159 
Q 2844 -88 2772 -463 
Q 2700 -822 2422 -1072 
Q 2119 -1344 1609 -1344 
Q 1656 -1109 1700 -872 
Q 1913 -888 2072 -750 
Q 2194 -641 2216 -525 
Q 2247 -359 2175 -222 
Q 2100 -91 1922 -91 
Q -25 -91 241 1275 
Q 422 2213 1516 2488 
Q 663 2600 822 3413 
Q 941 4028 1678 4284 
L 1028 4284 
L 1141 4863 
L 3606 4863 
L 3494 4284 
Q 1528 4284 1350 3375 
Q 1234 2778 2881 2750 
L 2778 2219 
Q 1009 2288 819 1275 
Q 659 428 2016 397 
z
" transform="scale(0.015625)"/>
       <path id="DejaVuSans-d7" d="M 4488 3438 
L 3059 2003 
L 4488 575 
L 4116 197 
L 2681 1631 
L 1247 197 
L 878 575 
L 2303 2003 
L 878 3438 
L 1247 3816 
L 2681 2381 
L 4116 3816 
L 4488 3438 
z
" transform="scale(0.015625)"/>
       <path id="DejaVuSans-3a" d="M 750 794 
L 1409 794 
L 1409 0 
L 750 0 
L 750 794 
z
M 750 3309 
L 1409 3309 
L 1409 2516 
L 750 2516 
L 750 3309 
z
" transform="scale(0.015625)"/>
       <path id="DejaVuSans-Oblique-78" d="M 3841 3500 
L 2234 1784 
L 3219 0 
L 2559 0 
L 1819 1388 
L 531 0 
L -166 0 
L 1556 1844 
L 641 3500 
L 1300 3500 
L 1972 2234 
L 3144 3500 
L 3841 3500 
z
" transform="scale(0.015625)"/>
       <path id="DejaVuSans-33" d="M 2597 2516 
Q 3050 2419 3304 2112 
Q 3559 1806 3559 1356 
Q 3559 666 3084 287 
Q 2609 -91 1734 -91 
Q 1441 -91 1130 -33 
Q 819 25 488 141 
L 488 750 
Q 750 597 1062 519 
Q 1375 441 1716 441 
Q 2309 441 2620 675 
Q 2931 909 2931 1356 
Q 2931 1769 2642 2001 
Q 2353 2234 1838 2234 
L 1294 2234 
L 1294 2753 
L 1863 2753 
Q 2328 2753 2575 2939 
Q 2822 3125 2822 3475 
Q 2822 3834 2567 4026 
Q 2313 4219 1838 4219 
Q 1578 4219 1281 4162 
Q 984 4106 628 3988 
L 628 4550 
Q 988 4650 1302 4700 
Q 1616 4750 1894 4750 
Q 2613 4750 3031 4423 
Q 3450 4097 3450 3541 
Q 3450 3153 3228 2886 
Q 3006 2619 2597 2516 
z
" transform="scale(0.015625)"/>
       <path id="DejaVuSans-2c" d="M 750 794 
L 1409 794 
L 1409 256 
L 897 -744 
L 494 -744 
L 750 256 
L 750 794 
z
" transform="scale(0.015625)"/>
      </defs>
      <use xlink:href="#DejaVuSans-Oblique-3be" transform="translate(0 0.765625)"/>
      <use xlink:href="#DejaVuSans-3d" transform="translate(75.244141 0.765625)"/>
      <use xlink:href="#DejaVuSans-30" transform="translate(178.515625 0.765625)"/>
      <use xlink:href="#DejaVuSans-2e" transform="translate(242.138672 0.765625)"/>
      <use xlink:href="#DejaVuSans-30" transform="translate(273.925781 0.765625)"/>
      <use xlink:href="#DejaVuSans-d7" transform="translate(357.03125 0.765625)"/>
      <use xlink:href="#DejaVuSans-31" transform="translate(460.302734 0.765625)"/>
      <use xlink:href="#DejaVuSans-30" transform="translate(523.925781 0.765625)"/>
      <use xlink:href="#DejaVuSans-30" transform="translate(588.505859 39.046875) scale(0.7)"/>
      <use xlink:href="#DejaVuSans-3a" transform="translate(655.258789 0.765625)"/>
      <use xlink:href="#DejaVuSans-Oblique-52" transform="translate(708.432617 0.765625)"/>
      <use xlink:href="#DejaVuSans-Oblique-6d" transform="translate(777.915039 -15.640625) scale(0.7)"/>
      <use xlink:href="#DejaVuSans-Oblique-61" transform="translate(846.103516 -15.640625) scale(0.7)"/>
      <use xlink:href="#DejaVuSans-Oblique-78" transform="translate(888.999023 -15.640625) scale(0.7)"/>
      <use xlink:href="#DejaVuSans-3d" transform="translate(952.641602 0.765625)"/>
      <use xlink:href="#DejaVuSans-31" transform="translate(1055.913086 0.765625)"/>
      <use xlink:href="#DejaVuSans-31" transform="translate(1119.536133 0.765625)"/>
      <use xlink:href="#DejaVuSans-2e" transform="translate(1183.15918 0.765625)"/>
      <use xlink:href="#DejaVuSans-35" transform="translate(1214.946289 0.765625)"/>
      <use xlink:href="#DejaVuSans-33" transform="translate(1278.569336 0.765625)"/>
      <use xlink:href="#DejaVuSans-Oblique-6b" transform="translate(1342.192383 0.765625)"/>
      <use xlink:href="#DejaVuSans-Oblique-6d" transform="translate(1400.102539 0.765625)"/>
      <use xlink:href="#DejaVuSans-2c" transform="translate(1497.514648 0.765625)"/>
      <use xlink:href="#DejaVuSans-Oblique-4d" transform="translate(1548.78418 0.765625)"/>
      <use xlink:href="#DejaVuSans-Oblique-6d" transform="translate(1635.063477 -15.640625) scale(0.7)"/>
      <use xlink:href="#DejaVuSans-Oblique-61" transform="translate(1703.251953 -15.640625) scale(0.7)"/>
      <use xlink:href="#DejaVuSans-Oblique-78" transform="translate(1746.147461 -15.640625) scale(0.7)"/>
      <use xlink:href="#DejaVuSans-3d" transform="translate(1809.790039 0.765625)"/>
      <use xlink:href="#DejaVuSans-32" transform="translate(1913.061523 0.765625)"/>
      <use xlink:href="#DejaVuSans-2e" transform="translate(1976.68457 0.765625)"/>
      <use xlink:href="#DejaVuSans-30" transform="translate(2008.47168 0.765625)"/>
      <use xlink:href="#DejaVuSans-Oblique-4d" transform="translate(2072.094727 0.765625)"/>
      <use xlink:href="#DejaVuSans-2299" transform="translate(2172.011719 -15.640625) scale(0.7)"/>
     </g>
    </g>
    <g id="line2d_42">
     <path d="M 63 59.892 
L 69 59.892 
L 75 59.892 
" style="fill: none; stroke: #008000; stroke-width: 0.5; stroke-linecap: square"/>
    </g>
    <g id="text_19">
     <!-- $\xi =1.0 \times 10^{-17} : R_{max}=11.53 km, M_{max}=2.0 M_\odot$ -->
     <g transform="translate(79.8 61.992) scale(0.06 -0.06)">
      <defs>
       <path id="DejaVuSans-2212" d="M 678 2272 
L 4684 2272 
L 4684 1741 
L 678 1741 
L 678 2272 
z
" transform="scale(0.015625)"/>
      </defs>
      <use xlink:href="#DejaVuSans-Oblique-3be" transform="translate(0 0.684375)"/>
      <use xlink:href="#DejaVuSans-3d" transform="translate(75.244141 0.684375)"/>
      <use xlink:href="#DejaVuSans-31" transform="translate(178.515625 0.684375)"/>
      <use xlink:href="#DejaVuSans-2e" transform="translate(242.138672 0.684375)"/>
      <use xlink:href="#DejaVuSans-30" transform="translate(273.925781 0.684375)"/>
      <use xlink:href="#DejaVuSans-d7" transform="translate(357.03125 0.684375)"/>
      <use xlink:href="#DejaVuSans-31" transform="translate(460.302734 0.684375)"/>
      <use xlink:href="#DejaVuSans-30" transform="translate(523.925781 0.684375)"/>
      <use xlink:href="#DejaVuSans-2212" transform="translate(588.505859 38.965625) scale(0.7)"/>
      <use xlink:href="#DejaVuSans-31" transform="translate(647.158203 38.965625) scale(0.7)"/>
      <use xlink:href="#DejaVuSans-37" transform="translate(691.694336 38.965625) scale(0.7)"/>
      <use xlink:href="#DejaVuSans-3a" transform="translate(758.447266 0.684375)"/>
      <use xlink:href="#DejaVuSans-Oblique-52" transform="translate(811.621094 0.684375)"/>
      <use xlink:href="#DejaVuSans-Oblique-6d" transform="translate(881.103516 -15.721875) scale(0.7)"/>
      <use xlink:href="#DejaVuSans-Oblique-61" transform="translate(949.291992 -15.721875) scale(0.7)"/>
      <use xlink:href="#DejaVuSans-Oblique-78" transform="translate(992.1875 -15.721875) scale(0.7)"/>
      <use xlink:href="#DejaVuSans-3d" transform="translate(1055.830078 0.684375)"/>
      <use xlink:href="#DejaVuSans-31" transform="translate(1159.101562 0.684375)"/>
      <use xlink:href="#DejaVuSans-31" transform="translate(1222.724609 0.684375)"/>
      <use xlink:href="#DejaVuSans-2e" transform="translate(1286.347656 0.684375)"/>
      <use xlink:href="#DejaVuSans-35" transform="translate(1318.134766 0.684375)"/>
      <use xlink:href="#DejaVuSans-33" transform="translate(1381.757812 0.684375)"/>
      <use xlink:href="#DejaVuSans-Oblique-6b" transform="translate(1445.380859 0.684375)"/>
      <use xlink:href="#DejaVuSans-Oblique-6d" transform="translate(1503.291016 0.684375)"/>
      <use xlink:href="#DejaVuSans-2c" transform="translate(1600.703125 0.684375)"/>
      <use xlink:href="#DejaVuSans-Oblique-4d" transform="translate(1651.972656 0.684375)"/>
      <use xlink:href="#DejaVuSans-Oblique-6d" transform="translate(1738.251953 -15.721875) scale(0.7)"/>
      <use xlink:href="#DejaVuSans-Oblique-61" transform="translate(1806.44043 -15.721875) scale(0.7)"/>
      <use xlink:href="#DejaVuSans-Oblique-78" transform="translate(1849.335938 -15.721875) scale(0.7)"/>
      <use xlink:href="#DejaVuSans-3d" transform="translate(1912.978516 0.684375)"/>
      <use xlink:href="#DejaVuSans-32" transform="translate(2016.25 0.684375)"/>
      <use xlink:href="#DejaVuSans-2e" transform="translate(2079.873047 0.684375)"/>
      <use xlink:href="#DejaVuSans-30" transform="translate(2111.660156 0.684375)"/>
      <use xlink:href="#DejaVuSans-Oblique-4d" transform="translate(2175.283203 0.684375)"/>
      <use xlink:href="#DejaVuSans-2299" transform="translate(2275.200195 -15.721875) scale(0.7)"/>
     </g>
    </g>
    <g id="line2d_43">
     <path d="M 63 69.552 
L 69 69.552 
L 75 69.552 
" style="fill: none; stroke: #0000ff; stroke-width: 0.5; stroke-linecap: square"/>
    </g>
    <g id="text_20">
     <!-- $\xi =1.0 \times 10^{-11} : R_{max}=11.53 km, M_{max}=2.0 M_\odot$ -->
     <g transform="translate(79.8 71.652) scale(0.06 -0.06)">
      <use xlink:href="#DejaVuSans-Oblique-3be" transform="translate(0 0.684375)"/>
      <use xlink:href="#DejaVuSans-3d" transform="translate(75.244141 0.684375)"/>
      <use xlink:href="#DejaVuSans-31" transform="translate(178.515625 0.684375)"/>
      <use xlink:href="#DejaVuSans-2e" transform="translate(242.138672 0.684375)"/>
      <use xlink:href="#DejaVuSans-30" transform="translate(273.925781 0.684375)"/>
      <use xlink:href="#DejaVuSans-d7" transform="translate(357.03125 0.684375)"/>
      <use xlink:href="#DejaVuSans-31" transform="translate(460.302734 0.684375)"/>
      <use xlink:href="#DejaVuSans-30" transform="translate(523.925781 0.684375)"/>
      <use xlink:href="#DejaVuSans-2212" transform="translate(588.505859 38.965625) scale(0.7)"/>
      <use xlink:href="#DejaVuSans-31" transform="translate(647.158203 38.965625) scale(0.7)"/>
      <use xlink:href="#DejaVuSans-31" transform="translate(691.694336 38.965625) scale(0.7)"/>
      <use xlink:href="#DejaVuSans-3a" transform="translate(758.447266 0.684375)"/>
      <use xlink:href="#DejaVuSans-Oblique-52" transform="translate(811.621094 0.684375)"/>
      <use xlink:href="#DejaVuSans-Oblique-6d" transform="translate(881.103516 -15.721875) scale(0.7)"/>
      <use xlink:href="#DejaVuSans-Oblique-61" transform="translate(949.291992 -15.721875) scale(0.7)"/>
      <use xlink:href="#DejaVuSans-Oblique-78" transform="translate(992.1875 -15.721875) scale(0.7)"/>
      <use xlink:href="#DejaVuSans-3d" transform="translate(1055.830078 0.684375)"/>
      <use xlink:href="#DejaVuSans-31" transform="translate(1159.101562 0.684375)"/>
      <use xlink:href="#DejaVuSans-31" transform="translate(1222.724609 0.684375)"/>
      <use xlink:href="#DejaVuSans-2e" transform="translate(1286.347656 0.684375)"/>
      <use xlink:href="#DejaVuSans-35" transform="translate(1318.134766 0.684375)"/>
      <use xlink:href="#DejaVuSans-33" transform="translate(1381.757812 0.684375)"/>
      <use xlink:href="#DejaVuSans-Oblique-6b" transform="translate(1445.380859 0.684375)"/>
      <use xlink:href="#DejaVuSans-Oblique-6d" transform="translate(1503.291016 0.684375)"/>
      <use xlink:href="#DejaVuSans-2c" transform="translate(1600.703125 0.684375)"/>
      <use xlink:href="#DejaVuSans-Oblique-4d" transform="translate(1651.972656 0.684375)"/>
      <use xlink:href="#DejaVuSans-Oblique-6d" transform="translate(1738.251953 -15.721875) scale(0.7)"/>
      <use xlink:href="#DejaVuSans-Oblique-61" transform="translate(1806.44043 -15.721875) scale(0.7)"/>
      <use xlink:href="#DejaVuSans-Oblique-78" transform="translate(1849.335938 -15.721875) scale(0.7)"/>
      <use xlink:href="#DejaVuSans-3d" transform="translate(1912.978516 0.684375)"/>
      <use xlink:href="#DejaVuSans-32" transform="translate(2016.25 0.684375)"/>
      <use xlink:href="#DejaVuSans-2e" transform="translate(2079.873047 0.684375)"/>
      <use xlink:href="#DejaVuSans-30" transform="translate(2111.660156 0.684375)"/>
      <use xlink:href="#DejaVuSans-Oblique-4d" transform="translate(2175.283203 0.684375)"/>
      <use xlink:href="#DejaVuSans-2299" transform="translate(2275.200195 -15.721875) scale(0.7)"/>
     </g>
    </g>
    <g id="line2d_44">
     <path d="M 63 79.272 
L 69 79.272 
L 75 79.272 
" style="fill: none; stroke: #00bfbf; stroke-width: 0.5; stroke-linecap: square"/>
    </g>
    <g id="text_21">
     <!-- $\xi =1.0 \times 10^{-10} : R_{max}=11.53 km, M_{max}=2.0 M_\odot$ -->
     <g transform="translate(79.8 81.372) scale(0.06 -0.06)">
      <use xlink:href="#DejaVuSans-Oblique-3be" transform="translate(0 0.765625)"/>
      <use xlink:href="#DejaVuSans-3d" transform="translate(75.244141 0.765625)"/>
      <use xlink:href="#DejaVuSans-31" transform="translate(178.515625 0.765625)"/>
      <use xlink:href="#DejaVuSans-2e" transform="translate(242.138672 0.765625)"/>
      <use xlink:href="#DejaVuSans-30" transform="translate(273.925781 0.765625)"/>
      <use xlink:href="#DejaVuSans-d7" transform="translate(357.03125 0.765625)"/>
      <use xlink:href="#DejaVuSans-31" transform="translate(460.302734 0.765625)"/>
      <use xlink:href="#DejaVuSans-30" transform="translate(523.925781 0.765625)"/>
      <use xlink:href="#DejaVuSans-2212" transform="translate(588.505859 39.046875) scale(0.7)"/>
      <use xlink:href="#DejaVuSans-31" transform="translate(647.158203 39.046875) scale(0.7)"/>
      <use xlink:href="#DejaVuSans-30" transform="translate(691.694336 39.046875) scale(0.7)"/>
      <use xlink:href="#DejaVuSans-3a" transform="translate(758.447266 0.765625)"/>
      <use xlink:href="#DejaVuSans-Oblique-52" transform="translate(811.621094 0.765625)"/>
      <use xlink:href="#DejaVuSans-Oblique-6d" transform="translate(881.103516 -15.640625) scale(0.7)"/>
      <use xlink:href="#DejaVuSans-Oblique-61" transform="translate(949.291992 -15.640625) scale(0.7)"/>
      <use xlink:href="#DejaVuSans-Oblique-78" transform="translate(992.1875 -15.640625) scale(0.7)"/>
      <use xlink:href="#DejaVuSans-3d" transform="translate(1055.830078 0.765625)"/>
      <use xlink:href="#DejaVuSans-31" transform="translate(1159.101562 0.765625)"/>
      <use xlink:href="#DejaVuSans-31" transform="translate(1222.724609 0.765625)"/>
      <use xlink:href="#DejaVuSans-2e" transform="translate(1286.347656 0.765625)"/>
      <use xlink:href="#DejaVuSans-35" transform="translate(1318.134766 0.765625)"/>
      <use xlink:href="#DejaVuSans-33" transform="translate(1381.757812 0.765625)"/>
      <use xlink:href="#DejaVuSans-Oblique-6b" transform="translate(1445.380859 0.765625)"/>
      <use xlink:href="#DejaVuSans-Oblique-6d" transform="translate(1503.291016 0.765625)"/>
      <use xlink:href="#DejaVuSans-2c" transform="translate(1600.703125 0.765625)"/>
      <use xlink:href="#DejaVuSans-Oblique-4d" transform="translate(1651.972656 0.765625)"/>
      <use xlink:href="#DejaVuSans-Oblique-6d" transform="translate(1738.251953 -15.640625) scale(0.7)"/>
      <use xlink:href="#DejaVuSans-Oblique-61" transform="translate(1806.44043 -15.640625) scale(0.7)"/>
      <use xlink:href="#DejaVuSans-Oblique-78" transform="translate(1849.335938 -15.640625) scale(0.7)"/>
      <use xlink:href="#DejaVuSans-3d" transform="translate(1912.978516 0.765625)"/>
      <use xlink:href="#DejaVuSans-32" transform="translate(2016.25 0.765625)"/>
      <use xlink:href="#DejaVuSans-2e" transform="translate(2079.873047 0.765625)"/>
      <use xlink:href="#DejaVuSans-30" transform="translate(2111.660156 0.765625)"/>
      <use xlink:href="#DejaVuSans-Oblique-4d" transform="translate(2175.283203 0.765625)"/>
      <use xlink:href="#DejaVuSans-2299" transform="translate(2275.200195 -15.640625) scale(0.7)"/>
     </g>
    </g>
    <g id="line2d_45">
     <path d="M 63 88.992 
L 69 88.992 
L 75 88.992 
" style="fill: none; stroke: #bf00bf; stroke-width: 0.5; stroke-linecap: square"/>
    </g>
    <g id="text_22">
     <!-- $\xi =1.0 \times 10^{-9} : R_{max}=11.57 km, M_{max}=2.0 M_\odot$ -->
     <g transform="translate(79.8 91.092) scale(0.06 -0.06)">
      <defs>
       <path id="DejaVuSans-39" d="M 703 97 
L 703 672 
Q 941 559 1184 500 
Q 1428 441 1663 441 
Q 2288 441 2617 861 
Q 2947 1281 2994 2138 
Q 2813 1869 2534 1725 
Q 2256 1581 1919 1581 
Q 1219 1581 811 2004 
Q 403 2428 403 3163 
Q 403 3881 828 4315 
Q 1253 4750 1959 4750 
Q 2769 4750 3195 4129 
Q 3622 3509 3622 2328 
Q 3622 1225 3098 567 
Q 2575 -91 1691 -91 
Q 1453 -91 1209 -44 
Q 966 3 703 97 
z
M 1959 2075 
Q 2384 2075 2632 2365 
Q 2881 2656 2881 3163 
Q 2881 3666 2632 3958 
Q 2384 4250 1959 4250 
Q 1534 4250 1286 3958 
Q 1038 3666 1038 3163 
Q 1038 2656 1286 2365 
Q 1534 2075 1959 2075 
z
" transform="scale(0.015625)"/>
      </defs>
      <use xlink:href="#DejaVuSans-Oblique-3be" transform="translate(0 0.765625)"/>
      <use xlink:href="#DejaVuSans-3d" transform="translate(75.244141 0.765625)"/>
      <use xlink:href="#DejaVuSans-31" transform="translate(178.515625 0.765625)"/>
      <use xlink:href="#DejaVuSans-2e" transform="translate(242.138672 0.765625)"/>
      <use xlink:href="#DejaVuSans-30" transform="translate(273.925781 0.765625)"/>
      <use xlink:href="#DejaVuSans-d7" transform="translate(357.03125 0.765625)"/>
      <use xlink:href="#DejaVuSans-31" transform="translate(460.302734 0.765625)"/>
      <use xlink:href="#DejaVuSans-30" transform="translate(523.925781 0.765625)"/>
      <use xlink:href="#DejaVuSans-2212" transform="translate(588.505859 39.046875) scale(0.7)"/>
      <use xlink:href="#DejaVuSans-39" transform="translate(647.158203 39.046875) scale(0.7)"/>
      <use xlink:href="#DejaVuSans-3a" transform="translate(713.911133 0.765625)"/>
      <use xlink:href="#DejaVuSans-Oblique-52" transform="translate(767.084961 0.765625)"/>
      <use xlink:href="#DejaVuSans-Oblique-6d" transform="translate(836.567383 -15.640625) scale(0.7)"/>
      <use xlink:href="#DejaVuSans-Oblique-61" transform="translate(904.755859 -15.640625) scale(0.7)"/>
      <use xlink:href="#DejaVuSans-Oblique-78" transform="translate(947.651367 -15.640625) scale(0.7)"/>
      <use xlink:href="#DejaVuSans-3d" transform="translate(1011.293945 0.765625)"/>
      <use xlink:href="#DejaVuSans-31" transform="translate(1114.56543 0.765625)"/>
      <use xlink:href="#DejaVuSans-31" transform="translate(1178.188477 0.765625)"/>
      <use xlink:href="#DejaVuSans-2e" transform="translate(1241.811523 0.765625)"/>
      <use xlink:href="#DejaVuSans-35" transform="translate(1273.598633 0.765625)"/>
      <use xlink:href="#DejaVuSans-37" transform="translate(1329.97168 0.765625)"/>
      <use xlink:href="#DejaVuSans-Oblique-6b" transform="translate(1393.594727 0.765625)"/>
      <use xlink:href="#DejaVuSans-Oblique-6d" transform="translate(1451.504883 0.765625)"/>
      <use xlink:href="#DejaVuSans-2c" transform="translate(1548.916992 0.765625)"/>
      <use xlink:href="#DejaVuSans-Oblique-4d" transform="translate(1600.186523 0.765625)"/>
      <use xlink:href="#DejaVuSans-Oblique-6d" transform="translate(1686.46582 -15.640625) scale(0.7)"/>
      <use xlink:href="#DejaVuSans-Oblique-61" transform="translate(1754.654297 -15.640625) scale(0.7)"/>
      <use xlink:href="#DejaVuSans-Oblique-78" transform="translate(1797.549805 -15.640625) scale(0.7)"/>
      <use xlink:href="#DejaVuSans-3d" transform="translate(1861.192383 0.765625)"/>
      <use xlink:href="#DejaVuSans-32" transform="translate(1964.463867 0.765625)"/>
      <use xlink:href="#DejaVuSans-2e" transform="translate(2028.086914 0.765625)"/>
      <use xlink:href="#DejaVuSans-30" transform="translate(2059.874023 0.765625)"/>
      <use xlink:href="#DejaVuSans-Oblique-4d" transform="translate(2123.49707 0.765625)"/>
      <use xlink:href="#DejaVuSans-2299" transform="translate(2223.414062 -15.640625) scale(0.7)"/>
     </g>
    </g>
    <g id="line2d_46">
     <path d="M 63 98.712 
L 69 98.712 
L 75 98.712 
" style="fill: none; stroke: #bfbf00; stroke-width: 0.5; stroke-linecap: square"/>
    </g>
    <g id="text_23">
     <!-- $\xi =1.0 \times 10^{-6} : R_{max}=11.5 km, M_{max}=2.0 M_\odot$ -->
     <g transform="translate(79.8 100.812) scale(0.06 -0.06)">
      <defs>
       <path id="DejaVuSans-36" d="M 2113 2584 
Q 1688 2584 1439 2293 
Q 1191 2003 1191 1497 
Q 1191 994 1439 701 
Q 1688 409 2113 409 
Q 2538 409 2786 701 
Q 3034 994 3034 1497 
Q 3034 2003 2786 2293 
Q 2538 2584 2113 2584 
z
M 3366 4563 
L 3366 3988 
Q 3128 4100 2886 4159 
Q 2644 4219 2406 4219 
Q 1781 4219 1451 3797 
Q 1122 3375 1075 2522 
Q 1259 2794 1537 2939 
Q 1816 3084 2150 3084 
Q 2853 3084 3261 2657 
Q 3669 2231 3669 1497 
Q 3669 778 3244 343 
Q 2819 -91 2113 -91 
Q 1303 -91 875 529 
Q 447 1150 447 2328 
Q 447 3434 972 4092 
Q 1497 4750 2381 4750 
Q 2619 4750 2861 4703 
Q 3103 4656 3366 4563 
z
" transform="scale(0.015625)"/>
      </defs>
      <use xlink:href="#DejaVuSans-Oblique-3be" transform="translate(0 0.765625)"/>
      <use xlink:href="#DejaVuSans-3d" transform="translate(75.244141 0.765625)"/>
      <use xlink:href="#DejaVuSans-31" transform="translate(178.515625 0.765625)"/>
      <use xlink:href="#DejaVuSans-2e" transform="translate(242.138672 0.765625)"/>
      <use xlink:href="#DejaVuSans-30" transform="translate(273.925781 0.765625)"/>
      <use xlink:href="#DejaVuSans-d7" transform="translate(357.03125 0.765625)"/>
      <use xlink:href="#DejaVuSans-31" transform="translate(460.302734 0.765625)"/>
      <use xlink:href="#DejaVuSans-30" transform="translate(523.925781 0.765625)"/>
      <use xlink:href="#DejaVuSans-2212" transform="translate(588.505859 39.046875) scale(0.7)"/>
      <use xlink:href="#DejaVuSans-36" transform="translate(647.158203 39.046875) scale(0.7)"/>
      <use xlink:href="#DejaVuSans-3a" transform="translate(713.911133 0.765625)"/>
      <use xlink:href="#DejaVuSans-Oblique-52" transform="translate(767.084961 0.765625)"/>
      <use xlink:href="#DejaVuSans-Oblique-6d" transform="translate(836.567383 -15.640625) scale(0.7)"/>
      <use xlink:href="#DejaVuSans-Oblique-61" transform="translate(904.755859 -15.640625) scale(0.7)"/>
      <use xlink:href="#DejaVuSans-Oblique-78" transform="translate(947.651367 -15.640625) scale(0.7)"/>
      <use xlink:href="#DejaVuSans-3d" transform="translate(1011.293945 0.765625)"/>
      <use xlink:href="#DejaVuSans-31" transform="translate(1114.56543 0.765625)"/>
      <use xlink:href="#DejaVuSans-31" transform="translate(1178.188477 0.765625)"/>
      <use xlink:href="#DejaVuSans-2e" transform="translate(1241.811523 0.765625)"/>
      <use xlink:href="#DejaVuSans-35" transform="translate(1273.598633 0.765625)"/>
      <use xlink:href="#DejaVuSans-Oblique-6b" transform="translate(1337.22168 0.765625)"/>
      <use xlink:href="#DejaVuSans-Oblique-6d" transform="translate(1395.131836 0.765625)"/>
      <use xlink:href="#DejaVuSans-2c" transform="translate(1492.543945 0.765625)"/>
      <use xlink:href="#DejaVuSans-Oblique-4d" transform="translate(1543.813477 0.765625)"/>
      <use xlink:href="#DejaVuSans-Oblique-6d" transform="translate(1630.092773 -15.640625) scale(0.7)"/>
      <use xlink:href="#DejaVuSans-Oblique-61" transform="translate(1698.28125 -15.640625) scale(0.7)"/>
      <use xlink:href="#DejaVuSans-Oblique-78" transform="translate(1741.176758 -15.640625) scale(0.7)"/>
      <use xlink:href="#DejaVuSans-3d" transform="translate(1804.819336 0.765625)"/>
      <use xlink:href="#DejaVuSans-32" transform="translate(1908.09082 0.765625)"/>
      <use xlink:href="#DejaVuSans-2e" transform="translate(1971.713867 0.765625)"/>
      <use xlink:href="#DejaVuSans-30" transform="translate(2003.500977 0.765625)"/>
      <use xlink:href="#DejaVuSans-Oblique-4d" transform="translate(2067.124023 0.765625)"/>
      <use xlink:href="#DejaVuSans-2299" transform="translate(2167.041016 -15.640625) scale(0.7)"/>
     </g>
    </g>
   </g>
  </g>
 </g>
 <defs>
  <clipPath id="p83137395d9">
   <rect x="57.6" y="41.472" width="357.12" height="266.112"/>
  </clipPath>
 </defs>
</svg>
