<?xml version="1.0" encoding="utf-8" standalone="no"?>
<!DOCTYPE svg PUBLIC "-//W3C//DTD SVG 1.1//EN"
  "http://www.w3.org/Graphics/SVG/1.1/DTD/svg11.dtd">
<svg xmlns:xlink="http://www.w3.org/1999/xlink" width="460.8pt" height="345.6pt" viewBox="0 0 460.8 345.6" xmlns="http://www.w3.org/2000/svg" version="1.1">
 <metadata>
  <rdf:RDF xmlns:dc="http://purl.org/dc/elements/1.1/" xmlns:cc="http://creativecommons.org/ns#" xmlns:rdf="http://www.w3.org/1999/02/22-rdf-syntax-ns#">
   <cc:Work>
    <dc:type rdf:resource="http://purl.org/dc/dcmitype/StillImage"/>
    <dc:date>2024-07-01T16:26:34.876650</dc:date>
    <dc:format>image/svg+xml</dc:format>
    <dc:creator>
     <cc:Agent>
      <dc:title>Matplotlib v3.7.2, https://matplotlib.org/</dc:title>
     </cc:Agent>
    </dc:creator>
   </cc:Work>
  </rdf:RDF>
 </metadata>
 <defs>
  <style type="text/css">*{stroke-linejoin: round; stroke-linecap: butt}</style>
 </defs>
 <g id="figure_1">
  <g id="patch_1">
   <path d="M 0 345.6 
L 460.8 345.6 
L 460.8 0 
L 0 0 
z
" style="fill: #ffffff"/>
  </g>
  <g id="axes_1">
   <g id="patch_2">
    <path d="M 57.6 307.584 
L 414.72 307.584 
L 414.72 41.472 
L 57.6 41.472 
z
" style="fill: #ffffff"/>
   </g>
   <g id="matplotlib.axis_1"/>
   <g id="matplotlib.axis_2"/>
   <g id="line2d_1">
    <path d="M 359.375282 346.6 
L 358.901881 344.590999 
L 358.741129 340.745852 
L 353.608646 337.031086 
L 356.997379 333.253403 
L 355.440265 329.564861 
L 350.344564 325.859506 
L 349.044926 322.330109 
L 355.178703 318.504101 
L 350.580243 315.001456 
L 349.935192 311.597576 
L 349.777165 308.211777 
L 346.598227 304.931088 
L 345.217531 301.701896 
L 348.14308 298.452084 
L 343.565055 295.344391 
L 343.748285 292.167119 
L 343.755097 289.149625 
L 342.237489 286.070588 
L 338.693454 283.09793 
L 338.818786 280.116388 
L 337.268483 277.194487 
L 337.954403 274.267932 
L 335.124215 271.42703 
L 334.344296 268.5488 
L 333.983966 265.751569 
L 331.368341 262.989552 
L 330.46309 260.179738 
L 329.927023 257.468054 
L 327.246007 254.812942 
L 323.440409 252.151804 
L 322.195263 249.507267 
L 319.461798 246.902278 
L 321.429647 241.654127 
L 317.867902 239.121784 
L 315.370116 236.590815 
L 316.725609 234.027595 
L 314.405604 231.606811 
L 313.7408 229.109258 
L 311.455534 226.651464 
L 305.779491 224.305123 
L 307.429923 221.885503 
L 300.220607 219.614028 
L 299.192748 217.228457 
L 301.689853 214.819305 
L 297.628822 212.517483 
L 295.396686 210.27181 
L 292.941132 208.023705 
L 288.77861 205.808592 
L 288.384904 203.510999 
L 290.368419 201.235084 
L 287.656752 199.077707 
L 281.789987 196.970029 
L 283.479926 194.713465 
L 279.213188 192.628839 
L 280.433131 190.436779 
L 273.931532 188.426279 
L 272.118305 186.321034 
L 272.744284 184.229112 
L 270.740333 182.161194 
L 269.173683 180.09888 
L 265.609894 178.122324 
L 257.568891 176.239246 
L 257.007621 174.195437 
L 259.528566 172.141371 
L 250.654513 170.299004 
L 249.726784 168.340319 
L 248.237785 166.421499 
L 250.179069 164.430033 
L 240.776442 162.666762 
L 237.797082 158.873746 
L 239.503368 156.969836 
L 233.046044 155.217773 
L 232.582179 153.362822 
L 227.683332 149.76025 
L 221.150399 148.066029 
L 219.251347 146.316082 
L 220.418161 144.503534 
L 219.726791 142.738253 
L 212.957499 141.084215 
L 207.823654 139.429648 
L 210.550307 137.632644 
L 207.549149 135.976808 
L 203.015399 134.339055 
L 198.05048 132.75597 
L 194.703979 131.123292 
L 191.9855 129.493363 
L 193.015402 127.78751 
L 187.461967 124.632021 
L 181.841779 123.113969 
L 180.192028 121.504131 
L 177.457201 119.966516 
L 173.558285 118.456818 
L 172.92277 116.868975 
L 170.785995 115.355681 
L 165.201227 113.903295 
L 164.394062 112.38133 
L 162.020246 110.899971 
L 158.234401 109.451286 
L 156.488607 107.952373 
L 152.765429 106.522194 
L 152.939804 105.056167 
L 146.107165 103.698316 
L 147.429962 102.213044 
L 140.478803 100.877505 
L 137.380922 99.486133 
L 135.594259 98.092329 
L 132.708898 96.722846 
L 127.05942 95.417761 
L 126.956566 94.010211 
L 121.087077 92.732619 
L 119.041576 91.384707 
L 116.007042 90.070317 
L 115.366759 88.704218 
L 110.559186 87.441853 
L 105.664425 84.871125 
L 102.507284 83.607809 
L 96.203219 82.40614 
L 99.771095 81.033908 
L 95.220998 79.821031 
L 89.273856 78.644953 
L 88.28891 77.38777 
L 85.028915 76.180709 
L 83.15779 74.962756 
L 76.01182 73.850124 
L 72.31725 72.680813 
L 69.830363 71.494161 
L 69.475482 70.263625 
L 67.899296 69.086595 
L 57.787589 66.890199 
L 54.838881 65.756101 
L 52.914625 64.59821 
L 49.64237 63.487482 
L 48.860407 62.334138 
L 44.695841 60.122092 
L 38.47079 59.094477 
L 38.031447 57.980894 
L 34.423383 56.917538 
L 22.771591 54.919833 
L 24.184982 53.793772 
L 16.587409 52.850223 
L 18.945558 51.714222 
L 15.549333 50.710505 
L 7.307389 49.80862 
L 4.219044 48.803 
L 3.678891 47.754026 
L 1.996444 46.745128 
L -1 46.24892 
L -1 46.24892 
" clip-path="url(#p78cb5bc958)" style="fill: none; stroke: #ff0000; stroke-width: 0.5; stroke-linecap: square"/>
   </g>
   <g id="line2d_2">
    <path clip-path="url(#p78cb5bc958)" style="fill: none; stroke: #ff0000; stroke-width: 1.5; stroke-linecap: square"/>
    <defs>
     <path id="mc8a1e1c4e4" d="M 0 2.5 
C 0.663008 2.5 1.29895 2.236584 1.767767 1.767767 
C 2.236584 1.29895 2.5 0.663008 2.5 0 
C 2.5 -0.663008 2.236584 -1.29895 1.767767 -1.767767 
C 1.29895 -2.236584 0.663008 -2.5 0 -2.5 
C -0.663008 -2.5 -1.29895 -2.236584 -1.767767 -1.767767 
C -2.236584 -1.29895 -2.5 -0.663008 -2.5 0 
C -2.5 0.663008 -2.236584 1.29895 -1.767767 1.767767 
C -1.29895 2.236584 -0.663008 2.5 0 2.5 
z
" style="stroke: #ff0000"/>
    </defs>
    <g clip-path="url(#p78cb5bc958)"/>
   </g>
   <g id="line2d_3">
    <path d="M 359.375282 346.6 
L 358.901881 344.590999 
L 358.741129 340.745852 
L 353.608646 337.031086 
L 356.997379 333.253403 
L 355.440265 329.564861 
L 350.344564 325.859506 
L 349.044926 322.330109 
L 355.178703 318.504101 
L 350.580243 315.001456 
L 349.935192 311.597576 
L 349.777165 308.211777 
L 346.598227 304.931088 
L 345.217531 301.701896 
L 348.14308 298.452084 
L 343.565055 295.344391 
L 343.748285 292.167119 
L 343.755097 289.149625 
L 342.237489 286.070588 
L 338.693454 283.09793 
L 338.818786 280.116388 
L 337.268483 277.194487 
L 337.954403 274.267932 
L 335.124215 271.42703 
L 334.344296 268.5488 
L 333.983966 265.751569 
L 331.368341 262.989552 
L 330.46309 260.179738 
L 329.927023 257.468054 
L 327.246007 254.812942 
L 323.440409 252.151804 
L 322.195263 249.507267 
L 319.461798 246.902278 
L 321.429647 241.654127 
L 317.867902 239.121784 
L 315.370116 236.590815 
L 316.725609 234.027595 
L 314.405604 231.606811 
L 313.7408 229.109258 
L 311.455534 226.651464 
L 305.779491 224.305123 
L 307.429923 221.885503 
L 300.220607 219.614028 
L 299.192748 217.228457 
L 301.689853 214.819305 
L 297.628822 212.517483 
L 295.396686 210.27181 
L 292.941132 208.023705 
L 288.77861 205.808592 
L 288.384904 203.510999 
L 290.368419 201.235084 
L 287.656752 199.077707 
L 281.789987 196.970029 
L 283.479926 194.713465 
L 279.213188 192.628839 
L 280.433131 190.436779 
L 273.931532 188.426279 
L 272.118305 186.321034 
L 272.744284 184.229112 
L 270.740333 182.161194 
L 269.173683 180.09888 
L 265.609894 178.122324 
L 257.568891 176.239246 
L 257.007621 174.195437 
L 259.528566 172.141371 
L 250.654513 170.299004 
L 249.726784 168.340319 
L 248.237785 166.421499 
L 250.179069 164.430033 
L 240.776442 162.666762 
L 237.797082 158.873746 
L 239.503368 156.969836 
L 233.046044 155.217773 
L 232.582179 153.362822 
L 227.683332 149.76025 
L 221.150399 148.066029 
L 219.251347 146.316082 
L 220.418161 144.503534 
L 219.726791 142.738253 
L 212.957499 141.084215 
L 207.823654 139.429648 
L 210.550307 137.632644 
L 207.549149 135.976808 
L 203.015399 134.339055 
L 198.05048 132.75597 
L 194.703979 131.123292 
L 191.9855 129.493363 
L 193.015402 127.78751 
L 187.461967 124.632021 
L 181.841779 123.113969 
L 180.192028 121.504131 
L 177.457201 119.966516 
L 173.558285 118.456818 
L 172.92277 116.868975 
L 170.785995 115.355681 
L 165.201227 113.903295 
L 164.394062 112.38133 
L 162.020246 110.899971 
L 158.234401 109.451286 
L 156.488607 107.952373 
L 152.765429 106.522194 
L 152.939804 105.056167 
L 146.107165 103.698316 
L 147.429962 102.213044 
L 140.478803 100.877505 
L 137.380922 99.486133 
L 135.594259 98.092329 
L 132.708898 96.722846 
L 127.05942 95.417761 
L 126.956566 94.010211 
L 121.087077 92.732619 
L 119.041576 91.384707 
L 116.007042 90.070317 
L 115.366759 88.704218 
L 110.559186 87.441853 
L 105.664425 84.871125 
L 102.507284 83.607809 
L 96.203219 82.40614 
L 99.771095 81.033908 
L 95.220998 79.821031 
L 89.273856 78.644953 
L 88.28891 77.38777 
L 85.028915 76.180709 
L 83.15779 74.962756 
L 76.01182 73.850124 
L 72.31725 72.680813 
L 69.830363 71.494161 
L 69.475482 70.263625 
L 67.899296 69.086595 
L 57.787589 66.890199 
L 54.838881 65.756101 
L 52.914625 64.59821 
L 49.64237 63.487482 
L 48.860407 62.334138 
L 44.695841 60.122092 
L 38.47079 59.094477 
L 38.031447 57.980894 
L 34.423383 56.917538 
L 22.771591 54.919833 
L 24.184982 53.793772 
L 16.587409 52.850223 
L 18.945558 51.714222 
L 15.549333 50.710505 
L 7.307389 49.80862 
L 4.219044 48.803 
L 3.678891 47.754026 
L 1.996444 46.745128 
L -1 46.24892 
L -1 46.24892 
" clip-path="url(#p78cb5bc958)" style="fill: none; stroke: #008000; stroke-width: 0.5; stroke-linecap: square"/>
   </g>
   <g id="line2d_4">
    <path clip-path="url(#p78cb5bc958)" style="fill: none; stroke: #008000; stroke-width: 1.5; stroke-linecap: square"/>
    <defs>
     <path id="mefe053e579" d="M 0 2.5 
C 0.663008 2.5 1.29895 2.236584 1.767767 1.767767 
C 2.236584 1.29895 2.5 0.663008 2.5 0 
C 2.5 -0.663008 2.236584 -1.29895 1.767767 -1.767767 
C 1.29895 -2.236584 0.663008 -2.5 0 -2.5 
C -0.663008 -2.5 -1.29895 -2.236584 -1.767767 -1.767767 
C -2.236584 -1.29895 -2.5 -0.663008 -2.5 0 
C -2.5 0.663008 -2.236584 1.29895 -1.767767 1.767767 
C -1.29895 2.236584 -0.663008 2.5 0 2.5 
z
" style="stroke: #008000"/>
    </defs>
    <g clip-path="url(#p78cb5bc958)"/>
   </g>
   <g id="line2d_5">
    <path d="M 359.375282 346.6 
L 358.901881 344.590999 
L 358.741129 340.745852 
L 353.608646 337.031086 
L 356.997379 333.253403 
L 355.440265 329.564861 
L 350.344564 325.859506 
L 349.044926 322.330109 
L 355.178703 318.504101 
L 350.580243 315.001456 
L 349.935192 311.597576 
L 349.777165 308.211777 
L 346.598227 304.931088 
L 345.217531 301.701896 
L 348.14308 298.452084 
L 343.565055 295.344391 
L 343.748285 292.167119 
L 343.755097 289.149625 
L 342.237489 286.070588 
L 338.693454 283.09793 
L 338.818786 280.116388 
L 337.268483 277.194487 
L 337.954403 274.267932 
L 335.124215 271.42703 
L 334.344296 268.5488 
L 333.983966 265.751569 
L 331.368341 262.989552 
L 330.46309 260.179738 
L 329.927023 257.468054 
L 327.246007 254.812942 
L 323.440409 252.151804 
L 322.195263 249.507267 
L 319.461798 246.902278 
L 321.429647 241.654127 
L 317.867902 239.121784 
L 315.370116 236.590815 
L 316.725609 234.027595 
L 314.405604 231.606811 
L 313.7408 229.109258 
L 311.455534 226.651464 
L 305.779491 224.305123 
L 307.429923 221.885503 
L 300.220607 219.614028 
L 299.192748 217.228457 
L 301.689853 214.819305 
L 297.628822 212.517483 
L 295.396686 210.27181 
L 292.941132 208.023705 
L 288.77861 205.808592 
L 288.384904 203.510999 
L 290.368419 201.235084 
L 287.656752 199.077707 
L 281.789987 196.970029 
L 283.479926 194.713465 
L 279.213188 192.628839 
L 280.433131 190.436779 
L 273.931532 188.426279 
L 272.118305 186.321034 
L 272.744284 184.229112 
L 270.740333 182.161194 
L 269.173683 180.09888 
L 265.609894 178.122324 
L 257.568891 176.239246 
L 257.007621 174.195437 
L 259.528566 172.141371 
L 250.654513 170.299004 
L 249.726784 168.340319 
L 248.237785 166.421499 
L 250.179069 164.430033 
L 240.776442 162.666762 
L 237.797082 158.873746 
L 239.503368 156.969836 
L 233.046044 155.217773 
L 232.582179 153.362822 
L 227.683332 149.76025 
L 221.150399 148.066029 
L 219.251347 146.316082 
L 220.418161 144.503534 
L 219.726791 142.738253 
L 212.957499 141.084215 
L 207.823654 139.429648 
L 210.550307 137.632644 
L 207.549149 135.976808 
L 203.015399 134.339055 
L 198.05048 132.75597 
L 194.703979 131.123292 
L 191.9855 129.493363 
L 193.015402 127.78751 
L 187.461967 124.632021 
L 181.841779 123.113969 
L 180.192028 121.504131 
L 177.457201 119.966516 
L 173.558285 118.456818 
L 172.92277 116.868975 
L 170.785995 115.355681 
L 165.201227 113.903295 
L 164.394062 112.38133 
L 162.020246 110.899971 
L 158.234401 109.451286 
L 156.488607 107.952373 
L 152.765429 106.522194 
L 152.939804 105.056167 
L 146.107165 103.698316 
L 147.429962 102.213044 
L 140.478803 100.877505 
L 137.380922 99.486133 
L 135.594259 98.092329 
L 132.708898 96.722846 
L 127.05942 95.417761 
L 126.956566 94.010211 
L 121.087077 92.732619 
L 119.041576 91.384707 
L 116.007042 90.070317 
L 115.366759 88.704218 
L 110.559186 87.441853 
L 105.664425 84.871125 
L 102.507284 83.607809 
L 96.203219 82.40614 
L 99.771095 81.033908 
L 95.220998 79.821031 
L 89.273856 78.644953 
L 88.28891 77.38777 
L 85.028915 76.180709 
L 83.15779 74.962756 
L 76.01182 73.850124 
L 72.31725 72.680813 
L 69.830363 71.494161 
L 69.475482 70.263625 
L 67.899296 69.086595 
L 57.787589 66.890199 
L 54.838881 65.756101 
L 52.914625 64.59821 
L 49.64237 63.487482 
L 48.860407 62.334138 
L 44.695841 60.122092 
L 38.47079 59.094477 
L 38.031447 57.980894 
L 34.423383 56.917538 
L 22.771591 54.919833 
L 24.184982 53.793772 
L 16.587409 52.850223 
L 18.945558 51.714222 
L 15.549333 50.710505 
L 7.307389 49.80862 
L 4.219044 48.803 
L 3.678891 47.754026 
L 1.996444 46.745128 
L -1 46.24892 
L -1 46.24892 
" clip-path="url(#p78cb5bc958)" style="fill: none; stroke: #0000ff; stroke-width: 0.5; stroke-linecap: square"/>
   </g>
   <g id="line2d_6">
    <path clip-path="url(#p78cb5bc958)" style="fill: none; stroke: #0000ff; stroke-width: 1.5; stroke-linecap: square"/>
    <defs>
     <path id="m55bacc0124" d="M 0 2.5 
C 0.663008 2.5 1.29895 2.236584 1.767767 1.767767 
C 2.236584 1.29895 2.5 0.663008 2.5 0 
C 2.5 -0.663008 2.236584 -1.29895 1.767767 -1.767767 
C 1.29895 -2.236584 0.663008 -2.5 0 -2.5 
C -0.663008 -2.5 -1.29895 -2.236584 -1.767767 -1.767767 
C -2.236584 -1.29895 -2.5 -0.663008 -2.5 0 
C -2.5 0.663008 -2.236584 1.29895 -1.767767 1.767767 
C -1.29895 2.236584 -0.663008 2.5 0 2.5 
z
" style="stroke: #0000ff"/>
    </defs>
    <g clip-path="url(#p78cb5bc958)"/>
   </g>
   <g id="line2d_7">
    <path d="M 359.375282 346.6 
L 358.901881 344.590999 
L 358.741129 340.745852 
L 353.608646 337.031086 
L 356.997379 333.253403 
L 355.440265 329.564861 
L 350.344564 325.859506 
L 349.044926 322.330109 
L 355.178703 318.504101 
L 350.580243 315.001456 
L 349.935192 311.597576 
L 349.777165 308.211777 
L 346.598227 304.931088 
L 345.217531 301.701896 
L 348.14308 298.452084 
L 343.565055 295.344391 
L 343.748285 292.167119 
L 343.755097 289.149625 
L 342.237489 286.070588 
L 338.693454 283.09793 
L 338.818786 280.116388 
L 337.268483 277.194487 
L 337.954403 274.267932 
L 335.124215 271.42703 
L 334.344296 268.5488 
L 333.983966 265.751569 
L 331.368341 262.989552 
L 330.46309 260.179738 
L 329.927023 257.468054 
L 327.246007 254.812942 
L 323.440409 252.151804 
L 322.195263 249.507267 
L 319.461798 246.902278 
L 321.429647 241.654127 
L 317.867902 239.121784 
L 315.370116 236.590815 
L 316.725609 234.027595 
L 314.405604 231.606811 
L 313.7408 229.109258 
L 311.455534 226.651464 
L 305.779491 224.305123 
L 307.429923 221.885503 
L 300.220607 219.614028 
L 299.192748 217.228457 
L 301.689853 214.819305 
L 297.628822 212.517483 
L 295.396686 210.27181 
L 292.941132 208.023705 
L 288.77861 205.808592 
L 288.384904 203.510999 
L 290.368419 201.235084 
L 287.656752 199.077707 
L 281.789987 196.970029 
L 283.479926 194.713465 
L 279.213188 192.628839 
L 280.433131 190.436779 
L 273.931532 188.426279 
L 272.118305 186.321034 
L 272.744284 184.229112 
L 270.740333 182.161194 
L 269.173683 180.09888 
L 265.609894 178.122324 
L 257.568891 176.239246 
L 257.007621 174.195437 
L 259.528566 172.141371 
L 250.654513 170.299004 
L 249.726784 168.340319 
L 248.237785 166.421499 
L 250.179069 164.430033 
L 240.776442 162.666762 
L 237.797082 158.873746 
L 239.503368 156.969836 
L 233.046044 155.217773 
L 232.582179 153.362822 
L 227.683332 149.76025 
L 221.150399 148.066029 
L 219.251347 146.316082 
L 220.418161 144.503534 
L 219.726791 142.738253 
L 212.957499 141.084215 
L 207.823654 139.429648 
L 210.550307 137.632644 
L 207.549149 135.976808 
L 203.015399 134.339055 
L 198.05048 132.75597 
L 194.703979 131.123292 
L 191.9855 129.493363 
L 193.015402 127.78751 
L 187.461967 124.632021 
L 181.841779 123.113969 
L 180.192028 121.504131 
L 177.457201 119.966516 
L 173.558285 118.456818 
L 172.92277 116.868975 
L 170.785995 115.355681 
L 165.201227 113.903295 
L 164.394062 112.38133 
L 162.020246 110.899971 
L 158.234401 109.451286 
L 156.488607 107.952373 
L 152.765429 106.522194 
L 152.939804 105.056167 
L 146.107165 103.698316 
L 147.429962 102.213044 
L 140.478803 100.877505 
L 137.380922 99.486133 
L 135.594259 98.092329 
L 132.708898 96.722846 
L 127.05942 95.417761 
L 126.956566 94.010211 
L 121.087077 92.732619 
L 119.041576 91.384707 
L 116.007042 90.070317 
L 115.366759 88.704218 
L 110.559186 87.441853 
L 105.664425 84.871125 
L 102.507284 83.607809 
L 96.203219 82.40614 
L 99.771095 81.033908 
L 95.220998 79.821031 
L 89.273856 78.644953 
L 88.28891 77.38777 
L 85.028915 76.180709 
L 83.15779 74.962756 
L 76.01182 73.850124 
L 72.31725 72.680813 
L 69.830363 71.494161 
L 69.475482 70.263625 
L 67.899296 69.086595 
L 57.787589 66.890199 
L 54.838881 65.756101 
L 52.914625 64.59821 
L 49.64237 63.487482 
L 48.860407 62.334138 
L 44.695841 60.122092 
L 38.47079 59.094477 
L 38.031447 57.980894 
L 34.423383 56.917538 
L 22.771591 54.919833 
L 24.184982 53.793772 
L 16.587409 52.850223 
L 18.945558 51.714222 
L 15.549333 50.710505 
L 7.307389 49.80862 
L 4.219044 48.803 
L 3.678891 47.754026 
L 1.996444 46.745128 
L -1 46.24892 
L -1 46.24892 
" clip-path="url(#p78cb5bc958)" style="fill: none; stroke: #00bfbf; stroke-width: 0.5; stroke-linecap: square"/>
   </g>
   <g id="line2d_8">
    <path clip-path="url(#p78cb5bc958)" style="fill: none; stroke: #00bfbf; stroke-width: 1.5; stroke-linecap: square"/>
    <defs>
     <path id="m127b44411c" d="M 0 2.5 
C 0.663008 2.5 1.29895 2.236584 1.767767 1.767767 
C 2.236584 1.29895 2.5 0.663008 2.5 0 
C 2.5 -0.663008 2.236584 -1.29895 1.767767 -1.767767 
C 1.29895 -2.236584 0.663008 -2.5 0 -2.5 
C -0.663008 -2.5 -1.29895 -2.236584 -1.767767 -1.767767 
C -2.236584 -1.29895 -2.5 -0.663008 -2.5 0 
C -2.5 0.663008 -2.236584 1.29895 -1.767767 1.767767 
C -1.29895 2.236584 -0.663008 2.5 0 2.5 
z
" style="stroke: #00bfbf"/>
    </defs>
    <g clip-path="url(#p78cb5bc958)"/>
   </g>
   <g id="line2d_9">
    <path d="M 434.753577 346.6 
L 436.472191 344.203661 
L 431.104711 340.367713 
L 430.399718 332.867228 
L 430.931698 329.164094 
L 428.224118 325.378903 
L 427.916237 321.837556 
L 423.334125 318.141929 
L 423.27214 314.577108 
L 422.80487 311.177669 
L 423.924003 307.80456 
L 423.270778 304.482736 
L 423.018751 301.245613 
L 420.362257 298.069821 
L 420.336374 294.898154 
L 415.135094 291.749326 
L 412.57328 285.668235 
L 412.482687 282.650212 
L 407.992531 279.698596 
L 408.319484 276.77035 
L 406.14797 273.88144 
L 405.105126 271.013467 
L 407.108395 268.144543 
L 404.595624 265.366981 
L 403.894037 262.583497 
L 401.171471 259.785738 
L 400.263495 257.090867 
L 393.637245 254.419154 
L 393.021483 251.713392 
L 394.130399 249.074142 
L 389.190683 246.448004 
L 389.804401 243.851581 
L 388.382155 241.299675 
L 388.376706 238.734657 
L 385.976325 236.190259 
L 381.99567 233.683718 
L 380.772321 231.253628 
L 374.870817 228.778492 
L 377.965292 226.310653 
L 373.854538 223.897905 
L 370.356139 221.543634 
L 370.961002 219.168743 
L 369.869796 216.803157 
L 367.186056 214.478177 
L 362.58964 212.143045 
L 359.18456 209.8942 
L 358.742492 207.636896 
L 356.632963 203.115942 
L 352.598498 200.913624 
L 351.843781 198.746201 
L 347.226249 196.572963 
L 347.906039 194.385237 
L 345.575817 192.265294 
L 336.664982 188.050784 
L 339.153231 185.951249 
L 330.048949 183.914419 
L 328.943439 181.85052 
L 328.374677 179.798886 
L 329.686576 177.80097 
L 319.358263 173.808099 
L 315.515202 171.842646 
L 314.030971 169.878674 
L 312.951344 167.951606 
L 311.012104 166.051608 
L 311.095885 164.13448 
L 306.41705 162.242942 
L 304.529577 160.36071 
L 301.223944 158.49529 
L 297.511664 156.66815 
L 292.114894 154.848729 
L 292.699323 153.031211 
L 287.512348 151.227546 
L 285.381022 149.435724 
L 282.701369 147.663253 
L 280.37932 145.928426 
L 277.143847 144.189687 
L 275.111288 142.455073 
L 270.606828 140.732935 
L 269.92227 139.024439 
L 264.613368 137.335083 
L 266.150048 135.670999 
L 261.503908 134.003108 
L 255.874184 132.376457 
L 258.517055 130.726437 
L 247.023971 127.473452 
L 248.529318 125.874189 
L 244.550707 124.315214 
L 244.682169 122.739954 
L 238.289555 121.15761 
L 236.486544 119.62063 
L 231.990939 118.089994 
L 231.430351 116.545294 
L 226.968803 115.045747 
L 223.140727 113.541547 
L 218.801105 110.587287 
L 213.612086 109.12401 
L 213.516725 107.645083 
L 212.467069 106.199253 
L 204.00307 104.788636 
L 202.302233 103.362263 
L 198.126769 101.951435 
L 200.442006 100.544201 
L 193.967653 99.152512 
L 193.39276 97.77954 
L 188.13154 96.413229 
L 184.377709 95.05485 
L 179.015678 93.707467 
L 175.981144 92.371822 
L 178.056615 91.040936 
L 172.606715 89.727603 
L 172.336979 88.406233 
L 168.019835 87.110982 
L 162.684369 84.562037 
L 158.404689 83.297452 
L 152.427577 82.028954 
L 148.021203 80.783508 
L 148.837904 79.54483 
L 144.664484 78.31662 
L 137.504892 77.102474 
L 136.01453 75.890866 
L 133.897509 74.692793 
L 130.800309 73.50244 
L 129.117182 72.318431 
L 126.492702 71.145419 
L 123.462936 69.970716 
L 118.288903 68.821391 
L 110.151176 66.552454 
L 108.571583 65.420894 
L 107.456537 64.287219 
L 100.628666 63.17649 
L 98.079113 62.066079 
L 94.564367 60.973538 
L 94.479223 59.884909 
L 88.237824 58.810133 
L 85.206696 57.74075 
L 85.388563 56.668618 
L 83.516757 55.613193 
L 80.26766 54.568765 
L 73.294022 53.535018 
L 67.188173 52.507086 
L 69.869188 51.471224 
L 67.029464 50.4637 
L 57.799169 49.47003 
L 54.760548 48.466419 
L 50.943371 47.472748 
L 53.416635 46.485845 
L 46.815587 45.501268 
L 45.930089 44.531707 
L 38.734396 43.574412 
L 36.256364 42.622086 
L 32.768864 41.676 
L 28.385648 40.736364 
L 27.680656 39.793239 
L 24.930844 38.871368 
L 24.587543 37.952352 
L 11.82956 36.132296 
L 11.768256 35.226815 
L 7.028798 34.346079 
L 6.311544 33.459209 
L -0.952264 32.598034 
L -0.446849 31.716875 
L -1 31.629262 
L -1 31.629262 
" clip-path="url(#p78cb5bc958)" style="fill: none; stroke: #bf00bf; stroke-width: 0.5; stroke-linecap: square"/>
   </g>
   <g id="line2d_10">
    <path clip-path="url(#p78cb5bc958)" style="fill: none; stroke: #bf00bf; stroke-width: 1.5; stroke-linecap: square"/>
    <defs>
     <path id="m64def0966b" d="M 0 2.5 
C 0.663008 2.5 1.29895 2.236584 1.767767 1.767767 
C 2.236584 1.29895 2.5 0.663008 2.5 0 
C 2.5 -0.663008 2.236584 -1.29895 1.767767 -1.767767 
C 1.29895 -2.236584 0.663008 -2.5 0 -2.5 
C -0.663008 -2.5 -1.29895 -2.236584 -1.767767 -1.767767 
C -2.236584 -1.29895 -2.5 -0.663008 -2.5 0 
C -2.5 0.663008 -2.236584 1.29895 -1.767767 1.767767 
C -1.29895 2.236584 -0.663008 2.5 0 2.5 
z
" style="stroke: #bf00bf"/>
    </defs>
    <g clip-path="url(#p78cb5bc958)"/>
   </g>
   <g id="line2d_11">
    <path d="M 334.001642 346.6 
L 334.623568 345.386719 
L 329.415478 341.806987 
L 329.636852 337.973788 
L 331.966393 334.109819 
L 329.475419 330.510419 
L 329.313986 326.695619 
L 326.59142 323.269004 
L 328.245258 319.434431 
L 327.534135 315.864957 
L 327.75619 312.409262 
L 323.838883 309.206717 
L 327.474193 305.636397 
L 321.384691 302.684041 
L 320.375905 299.509729 
L 319.65184 296.322094 
L 321.433734 293.010105 
L 322.802851 289.883167 
L 322.643461 286.747875 
L 317.008288 283.971476 
L 318.569489 280.866744 
L 313.883842 278.131585 
L 318.288173 274.935384 
L 312.597826 272.303431 
L 311.962311 269.398025 
L 309.921579 266.658848 
L 307.671051 263.924852 
L 306.199081 258.352386 
L 306.932001 255.55653 
L 307.256911 252.754224 
L 304.796588 250.164779 
L 303.795294 247.505861 
L 299.893654 245.033581 
L 297.252826 242.538248 
L 294.867431 240.014787 
L 296.335995 237.295807 
L 291.784535 234.942804 
L 293.219723 232.341199 
L 288.715944 230.010826 
L 286.972875 227.542563 
L 283.991471 225.194214 
L 283.532375 222.76127 
L 283.811647 220.270166 
L 278.05046 218.11998 
L 279.310592 215.615341 
L 274.630395 213.43026 
L 272.330824 208.83169 
L 273.290568 206.411435 
L 269.517665 204.240946 
L 269.974037 201.903805 
L 266.935417 199.787774 
L 264.740744 197.616967 
L 263.436337 195.386099 
L 257.689455 193.46104 
L 254.049376 191.409195 
L 253.311007 189.243676 
L 250.324154 187.190667 
L 251.935761 184.93791 
L 249.727465 182.871578 
L 249.098761 180.734609 
L 243.379806 178.921216 
L 244.451259 176.7484 
L 242.480685 174.725211 
L 237.372724 172.902089 
L 234.240104 170.979357 
L 232.230705 169.03315 
L 231.81997 167.028255 
L 224.366801 165.389972 
L 221.820653 163.502875 
L 226.647299 161.226219 
L 217.156803 159.737987 
L 215.719572 157.85015 
L 214.040531 155.981981 
L 213.823244 154.040743 
L 208.883527 152.365979 
L 209.761532 150.388049 
L 207.229689 148.613251 
L 204.075954 146.910042 
L 199.648463 145.269539 
L 199.208439 143.418184 
L 198.574967 141.591572 
L 190.178402 140.192798 
L 190.198156 138.352123 
L 189.087196 136.61 
L 182.37444 135.160258 
L 184.27758 133.283312 
L 181.474638 131.641329 
L 179.038156 129.99723 
L 174.033729 128.486368 
L 170.604127 126.928134 
L 170.870458 125.210015 
L 167.345495 123.675784 
L 160.241757 122.326921 
L 162.094491 120.537002 
L 154.641322 119.261419 
L 154.467628 117.567833 
L 150.977404 116.105084 
L 150.363004 114.479914 
L 145.985238 111.459776 
L 142.607404 110.021137 
L 140.311239 108.512602 
L 138.993891 106.989791 
L 132.240946 105.775645 
L 127.038986 104.478279 
L 126.647323 102.926389 
L 127.536227 101.327231 
L 123.464979 99.989366 
L 118.499379 98.723723 
L 117.884979 97.235913 
L 113.615517 95.943835 
L 106.11671 94.843892 
L 108.852218 93.199476 
L 100.391625 92.169112 
L 98.880148 90.770655 
L 99.570836 89.253238 
L 96.414376 87.965389 
L 92.12516 86.764884 
L 91.021693 85.387259 
L 86.64529 84.191829 
L 80.0313 83.116313 
L 80.209762 81.69343 
L 75.596317 80.543047 
L 75.827909 79.141524 
L 74.193144 77.854204 
L 61.557086 75.794745 
L 59.751352 74.533015 
L 55.885812 73.395427 
L 55.870827 72.054178 
L 50.82485 69.669876 
L 48.199008 68.498133 
L 39.00277 65.108845 
L 35.799311 64.000231 
L 33.796042 62.834093 
L 30.420932 61.754453 
L 24.387284 60.819681 
L 22.247785 59.690553 
L 22.780446 58.438551 
L 14.633864 57.623904 
L 12.397641 56.520894 
L 9.579032 55.459865 
L 7.881601 54.349242 
L 4.290565 53.34193 
L -1 52.573855 
L -1 52.573855 
" clip-path="url(#p78cb5bc958)" style="fill: none; stroke: #bfbf00; stroke-width: 0.5; stroke-linecap: square"/>
   </g>
   <g id="line2d_12">
    <path clip-path="url(#p78cb5bc958)" style="fill: none; stroke: #bfbf00; stroke-width: 1.5; stroke-linecap: square"/>
    <defs>
     <path id="m6b8ab239b6" d="M 0 2.5 
C 0.663008 2.5 1.29895 2.236584 1.767767 1.767767 
C 2.236584 1.29895 2.5 0.663008 2.5 0 
C 2.5 -0.663008 2.236584 -1.29895 1.767767 -1.767767 
C 1.29895 -2.236584 0.663008 -2.5 0 -2.5 
C -0.663008 -2.5 -1.29895 -2.236584 -1.767767 -1.767767 
C -2.236584 -1.29895 -2.5 -0.663008 -2.5 0 
C -2.5 0.663008 -2.236584 1.29895 -1.767767 1.767767 
C -1.29895 2.236584 -0.663008 2.5 0 2.5 
z
" style="stroke: #bfbf00"/>
    </defs>
    <g clip-path="url(#p78cb5bc958)"/>
   </g>
   <g id="patch_3">
    <path d="M 57.6 307.584 
L 57.6 41.472 
" style="fill: none; stroke: #000000; stroke-width: 0.8; stroke-linejoin: miter; stroke-linecap: square"/>
   </g>
   <g id="patch_4">
    <path d="M 414.72 307.584 
L 414.72 41.472 
" style="fill: none; stroke: #000000; stroke-width: 0.8; stroke-linejoin: miter; stroke-linecap: square"/>
   </g>
   <g id="patch_5">
    <path d="M 57.6 307.584 
L 414.72 307.584 
" style="fill: none; stroke: #000000; stroke-width: 0.8; stroke-linejoin: miter; stroke-linecap: square"/>
   </g>
   <g id="patch_6">
    <path d="M 57.6 41.472 
L 414.72 41.472 
" style="fill: none; stroke: #000000; stroke-width: 0.8; stroke-linejoin: miter; stroke-linecap: square"/>
   </g>
  </g>
 </g>
 <defs>
  <clipPath id="p78cb5bc958">
   <rect x="57.6" y="41.472" width="357.12" height="266.112"/>
  </clipPath>
 </defs>
</svg>
